<svg width="141" height="140" viewBox="0 0 141 140" fill="none" xmlns="http://www.w3.org/2000/svg">
<circle cx="70.0332" cy="70" r="70" fill="#CBCA7B"/>
<path d="M75.8249 21.304C75.0745 21.2204 74.4142 21.0403 73.844 20.7636C73.2836 20.488 72.8225 20.1218 72.4607 19.6648C72.1087 19.209 71.8603 18.6678 71.7156 18.0412C71.5708 17.4147 71.5432 16.7139 71.6328 15.9391C71.7256 15.1355 71.9146 14.4395 72.1998 13.8511C72.4958 13.2543 72.8685 12.7629 73.3178 12.3769C73.778 11.9824 74.3034 11.7066 74.8941 11.5495C75.4858 11.3829 76.1326 11.3386 76.8343 11.4167C77.3898 11.4786 77.8882 11.6068 78.3297 11.8013C78.7711 11.9958 79.1421 12.2454 79.4425 12.5502C79.7429 12.8549 79.9641 13.2042 80.1061 13.5979C80.2482 13.9916 80.2921 14.4228 80.2379 14.8916L78.2227 15.1613C78.28 14.7511 78.2364 14.4022 78.0919 14.1148C77.9475 13.8274 77.7373 13.5957 77.4616 13.4197C77.1955 13.2447 76.8968 13.1388 76.5655 13.1019C76.2829 13.0704 75.9936 13.0963 75.6977 13.1796C75.4018 13.263 75.1269 13.4213 74.8729 13.6546C74.62 13.8784 74.4015 14.1884 74.2176 14.5845C74.0347 14.9711 73.909 15.461 73.8404 16.0541C73.752 16.8194 73.7922 17.4537 73.9611 17.957C74.13 18.4603 74.4009 18.849 74.7739 19.1231C75.147 19.3971 75.582 19.5619 76.079 19.6172C76.5955 19.6747 77.017 19.6151 77.3435 19.4383C77.671 19.2519 77.918 18.9935 78.0845 18.6633C78.251 18.333 78.3618 17.9723 78.4169 17.5811L80.2402 18.0749C80.1805 18.5914 80.0516 19.0664 79.8535 19.4997C79.6564 19.9235 79.3826 20.2855 79.0321 20.5856C78.6815 20.8857 78.2369 21.1026 77.6983 21.2364C77.1705 21.3618 76.546 21.3843 75.8249 21.304Z" fill="black"/>
<path d="M85.802 23.465C85.069 23.2185 84.4734 22.8605 84.0152 22.3909C83.5602 21.9122 83.2719 21.3421 83.1503 20.6804C83.0319 20.0096 83.119 19.2552 83.4114 18.4173C83.7039 17.5793 84.1048 16.9356 84.6142 16.4861C85.1328 16.0397 85.7182 15.7735 86.3703 15.6875C87.0348 15.5955 87.7243 15.6696 88.4388 15.9099C89.1625 16.1532 89.7535 16.5097 90.2116 16.9793C90.6791 17.452 90.972 18.0237 91.0904 18.6945C91.2213 19.3593 91.1405 20.1107 90.848 20.9487C90.5492 21.8048 90.1358 22.4545 89.6079 22.8978C89.0892 23.3442 88.4992 23.6088 87.8379 23.6917C87.1858 23.7777 86.5071 23.7022 85.802 23.465ZM86.3818 22.0266C86.7343 22.1452 87.0599 22.163 87.3583 22.0802C87.6661 22.0005 87.9375 21.817 88.1725 21.5297C88.4201 21.2364 88.6265 20.8529 88.7918 20.3793C88.9666 19.8783 89.0448 19.4314 89.0264 19.0385C89.0205 18.6396 88.9194 18.3054 88.7232 18.0358C88.5301 17.7572 88.2388 17.5524 87.8491 17.4213C87.5058 17.3058 87.1802 17.288 86.8725 17.3677C86.5647 17.4474 86.2887 17.6293 86.0444 17.9135C85.8093 18.2008 85.6075 18.5859 85.4391 19.0686C85.1689 19.8428 85.1169 20.4818 85.2833 20.9855C85.4589 21.4923 85.825 21.8394 86.3818 22.0266Z" fill="black"/>
<path d="M92.2579 25.6953L94.6252 21.7848L96.2034 19.1777L97.6956 20.0481L96.4505 22.0767L96.6781 22.2095C97.0883 21.7769 97.488 21.4557 97.8773 21.246C98.2801 21.033 98.685 20.9388 99.0921 20.9635C99.5043 20.98 99.9211 21.1111 100.343 21.357C101.11 21.8045 101.527 22.4062 101.594 23.1621C101.675 23.9146 101.377 24.8496 100.701 25.9669L98.6188 29.4057L96.7978 28.3435L98.7592 25.1033C99.1701 24.4246 99.367 23.8732 99.3501 23.4489C99.3381 23.0164 99.134 22.6846 98.7378 22.4535C98.409 22.2617 98.0681 22.2028 97.7153 22.277C97.3674 22.3428 97.0292 22.5151 96.7008 22.7939C96.3807 23.0776 96.0837 23.4363 95.8098 23.87L94.0662 26.7502L92.2579 25.6953Z" fill="black"/>
<path d="M102.875 33.0202C102.218 32.4712 101.879 31.897 101.857 31.2978C101.85 30.6975 102.167 30.0272 102.809 29.2869L105.002 26.7581L104.162 26.0561L105.243 24.8544L105.792 25.313C106.045 25.5116 106.262 25.6174 106.444 25.6303C106.633 25.6495 106.829 25.5727 107.03 25.3997L107.823 24.7534L108.741 25.5208L107.625 26.8072L109.104 28.0426L107.988 29.329L106.51 28.0936L104.422 30.5014C104.193 30.7653 104.088 31.0126 104.107 31.2433C104.132 31.4666 104.272 31.6844 104.525 31.8965C104.667 32.015 104.814 32.1127 104.967 32.1894C105.127 32.2724 105.284 32.3215 105.438 32.3366L104.17 33.7989C103.882 33.6851 103.632 33.558 103.419 33.4178C103.205 33.2775 103.024 33.145 102.875 33.0202Z" fill="black"/>
<path d="M106.991 36.974C106.712 36.6508 106.528 36.3114 106.44 35.9559C106.351 35.6004 106.367 35.2465 106.487 34.8942C106.614 34.5493 106.861 34.2244 107.227 33.9195C107.556 33.6457 107.88 33.4773 108.199 33.4144C108.523 33.3588 108.855 33.3925 109.192 33.5155C109.53 33.6386 109.889 33.8317 110.271 34.0949C110.652 34.3581 111.06 34.6815 111.494 35.0651C111.754 35.2775 111.97 35.4453 112.14 35.5684C112.311 35.6916 112.465 35.7588 112.603 35.77C112.741 35.7812 112.882 35.7277 113.024 35.6095C113.241 35.429 113.358 35.1994 113.374 34.9207C113.397 34.6494 113.272 34.3557 112.999 34.0399C112.822 33.8342 112.617 33.6707 112.383 33.5493C112.156 33.4352 111.907 33.3774 111.636 33.3759C111.378 33.3755 111.112 33.446 110.835 33.5875L110.02 31.8615C110.412 31.6747 110.793 31.5657 111.165 31.5344C111.544 31.4968 111.909 31.5334 112.262 31.644C112.628 31.7557 112.979 31.931 113.314 32.1699C113.648 32.4089 113.968 32.7046 114.272 33.0572C114.754 33.6155 115.053 34.1486 115.171 34.6568C115.294 35.1723 115.238 35.68 115.001 36.1799C114.771 36.6735 114.353 37.1724 113.747 37.6764L112.737 38.5165C112.483 38.7281 112.22 38.9526 111.95 39.1902C111.693 39.4289 111.433 39.6708 111.168 39.9157C110.912 40.1544 110.665 40.3974 110.429 40.6445L109.211 39.2342C109.394 39.0442 109.596 38.8386 109.817 38.6174C110.044 38.39 110.283 38.1601 110.532 37.9276L110.38 37.7513C110.006 37.8985 109.613 37.9725 109.203 37.9733C108.799 37.9815 108.405 37.9051 108.022 37.7442C107.639 37.5833 107.295 37.3266 106.991 36.974ZM108.74 36.655C108.86 36.7945 109.006 36.9191 109.178 37.0287C109.357 37.132 109.552 37.2094 109.764 37.2607C109.982 37.3193 110.213 37.3415 110.458 37.3273C110.702 37.313 110.95 37.258 111.202 37.1623L112.068 36.4232L112.242 36.714C112.037 36.67 111.828 36.5848 111.616 36.4583C111.418 36.3329 111.222 36.1871 111.027 36.0211C110.838 35.8623 110.646 35.7067 110.45 35.5542C110.254 35.4016 110.063 35.2768 109.877 35.1797C109.69 35.0826 109.506 35.0335 109.325 35.0325C109.152 35.0252 108.972 35.0994 108.785 35.255C108.56 35.4416 108.444 35.6644 108.436 35.9234C108.442 36.1834 108.543 36.4273 108.74 36.655Z" fill="black"/>
<path d="M113.603 46.0201C113.277 45.4494 113.076 44.9028 113.002 44.3804C112.928 43.8581 112.963 43.3693 113.108 42.9141C113.257 42.4673 113.5 42.057 113.837 41.6832C114.183 41.3046 114.608 40.9762 115.113 40.6978C115.643 40.4054 116.167 40.2102 116.684 40.1123C117.211 40.0096 117.718 40.0114 118.206 40.1175C118.695 40.2236 119.146 40.4327 119.561 40.7449C119.981 41.0655 120.347 41.4985 120.66 42.0441C120.977 42.598 121.154 43.1241 121.192 43.6223C121.235 44.129 121.159 44.596 120.965 45.0234C120.779 45.446 120.49 45.8154 120.097 46.1315L118.613 44.7473C118.885 44.5748 119.082 44.3779 119.203 44.1567C119.337 43.939 119.398 43.712 119.387 43.4754C119.375 43.2389 119.299 42.9989 119.16 42.7555C119.025 42.5205 118.861 42.3409 118.666 42.2165C118.471 42.0921 118.243 42.0189 117.983 41.9968C117.736 41.9784 117.465 42.0063 117.17 42.0807C116.88 42.1635 116.568 42.2969 116.235 42.4808C115.773 42.7356 115.414 43.0113 115.156 43.3081C114.907 43.6001 114.764 43.9108 114.728 44.2402C114.705 44.5732 114.794 44.916 114.996 45.2685C115.188 45.6042 115.408 45.8308 115.655 45.9484C115.907 46.0743 116.162 46.1269 116.42 46.106C116.687 46.0803 116.943 46.0164 117.188 45.9143L117.763 47.6845C117.415 47.8433 117.053 47.9381 116.677 47.9689C116.301 47.9997 115.93 47.9506 115.563 47.8215C115.197 47.6923 114.846 47.4827 114.511 47.1926C114.185 46.8977 113.882 46.5069 113.603 46.0201Z" fill="black"/>
<path d="M117.219 53.794C116.924 52.9978 116.918 52.334 117.201 51.8026C117.497 51.2769 118.11 50.8479 119.041 50.5155L122.221 49.3799L121.844 48.3621L123.388 47.8412L123.635 48.5062C123.755 48.8015 123.89 48.9989 124.042 49.0984C124.197 49.207 124.406 49.2349 124.668 49.1822L125.682 49.0044L126.095 50.1173L124.477 50.6949L125.141 52.4864L123.523 53.064L122.859 51.2726L119.832 52.3538C119.5 52.4723 119.284 52.6364 119.184 52.8462C119.094 53.0526 119.106 53.3097 119.22 53.6173C119.283 53.7892 119.362 53.9455 119.456 54.0861C119.553 54.2358 119.665 54.3547 119.792 54.4427L117.953 55.0993C117.76 54.8608 117.606 54.6288 117.491 54.4035C117.377 54.1781 117.286 53.9749 117.219 53.794Z" fill="black"/>
<path d="M119.711 64.7349C119.638 63.8521 119.886 63.1657 120.455 62.6757C121.034 62.1849 121.945 61.8898 123.186 61.7903L127.395 61.4531L127.568 63.5402L123.609 63.8575C122.866 63.917 122.322 64.0668 121.978 64.3069C121.645 64.5558 121.496 64.9009 121.533 65.3424C121.555 65.611 121.638 65.8363 121.781 66.018C121.935 66.2085 122.14 66.366 122.396 66.4903C122.662 66.6139 122.965 66.7008 123.303 66.7509C123.652 66.8003 124.027 66.8137 124.429 66.7912L127.816 66.5197L127.987 68.5781L123.471 68.9399L120.289 69.1949L120.149 67.5108L122.612 67.3134L122.592 67.0687C121.955 66.9845 121.432 66.8477 121.023 66.6584C120.614 66.4786 120.303 66.2282 120.089 65.9072C119.876 65.5959 119.75 65.2051 119.711 64.7349Z" fill="black"/>
<path d="M119.705 75.1931C119.763 74.6859 119.864 74.232 120.008 73.8313C120.153 73.4305 120.335 73.0872 120.555 72.8014C120.784 72.5261 121.04 72.3121 121.324 72.1591C121.616 72.0169 121.936 71.9405 122.283 71.9301L122.715 73.5906C122.487 73.6043 122.266 73.6817 122.052 73.823C121.838 73.9738 121.66 74.1869 121.521 74.4622C121.381 74.7375 121.287 75.0808 121.24 75.4923C121.192 75.9133 121.218 76.2503 121.318 76.5034C121.427 76.7576 121.603 76.8981 121.847 76.9248C122.032 76.9451 122.186 76.8942 122.309 76.772C122.43 76.6594 122.544 76.4781 122.652 76.2284C122.758 75.9881 122.867 75.6852 122.977 75.3195C123.106 74.9656 123.241 74.6073 123.381 74.2449C123.53 73.893 123.71 73.5689 123.921 73.2724C124.131 72.9854 124.389 72.7618 124.693 72.6014C124.996 72.4507 125.367 72.3993 125.806 72.4474C126.284 72.4998 126.684 72.6697 127.006 72.9569C127.329 73.2442 127.561 73.6378 127.701 74.1375C127.85 74.648 127.887 75.2381 127.81 75.9079C127.74 76.5298 127.59 77.0656 127.361 77.5152C127.132 77.9648 126.84 78.3202 126.484 78.5815C126.128 78.8524 125.71 79.0101 125.232 79.0544L124.898 77.3031C125.145 77.3011 125.365 77.2332 125.558 77.0994C125.75 76.9751 125.903 76.7982 126.018 76.5686C126.143 76.3401 126.223 76.0632 126.261 75.7378C126.306 75.336 126.274 75.0127 126.164 74.7681C126.052 74.5331 125.884 74.4033 125.66 74.3787C125.475 74.3584 125.316 74.4135 125.182 74.5442C125.049 74.6749 124.928 74.8699 124.82 75.1293C124.721 75.3897 124.612 75.6975 124.493 76.0525C124.372 76.4171 124.238 76.7753 124.089 77.1271C123.95 77.48 123.781 77.7957 123.582 78.0742C123.382 78.3526 123.136 78.5629 122.843 78.7052C122.551 78.8475 122.185 78.8946 121.747 78.8465C121.24 78.7909 120.821 78.6093 120.491 78.3019C120.16 78.0039 119.926 77.5907 119.789 77.0622C119.651 76.5337 119.624 75.9107 119.705 75.1931Z" fill="black"/>
<path d="M116.42 88.2995C116.731 87.5092 117.171 87.0053 117.74 86.7878C118.315 86.5828 119.065 86.6555 119.989 87.0061L123.145 88.2035L123.543 87.1932L125.056 87.798L124.796 88.4581C124.688 88.7579 124.658 88.9943 124.706 89.1671C124.75 89.349 124.888 89.5048 125.121 89.6344L126.004 90.1553L125.57 91.2599L123.964 90.6507L123.264 92.4289L121.658 91.8197L122.358 90.0416L119.353 88.9014C119.024 88.7765 118.751 88.7609 118.536 88.8545C118.329 88.9516 118.166 89.1529 118.046 89.4582C117.978 89.6288 117.933 89.7974 117.909 89.964C117.882 90.1395 117.887 90.3013 117.923 90.4493L116.098 89.7568C116.113 89.4527 116.152 89.1787 116.217 88.9348C116.281 88.6909 116.349 88.4791 116.42 88.2995Z" fill="black"/>
<path d="M113.161 94.7509C113.559 94.0981 114.039 93.6003 114.602 93.2577C115.174 92.9199 115.802 92.7612 116.486 92.7816C117.179 92.8069 117.913 93.0468 118.688 93.5013C119.462 93.9558 120.02 94.4742 120.363 95.0565C120.7 95.6471 120.844 96.2644 120.795 96.9084C120.749 97.5656 120.532 98.2124 120.145 98.8487C119.752 99.4933 119.274 99.9869 118.711 100.33C118.143 100.681 117.513 100.843 116.82 100.818C116.13 100.806 115.398 100.573 114.624 100.118C113.832 99.6538 113.27 99.1222 112.938 98.5234C112.601 97.9328 112.459 97.3114 112.514 96.6591C112.563 96.015 112.779 95.379 113.161 94.7509ZM114.475 95.6058C114.284 95.9198 114.198 96.2287 114.219 96.5325C114.235 96.8445 114.361 97.1432 114.599 97.4285C114.84 97.7269 115.179 98.0046 115.617 98.2615C116.08 98.5332 116.509 98.7009 116.905 98.7647C117.304 98.8417 117.658 98.8139 117.967 98.6813C118.285 98.5536 118.549 98.3163 118.76 97.9692C118.947 97.6634 119.032 97.3545 119.016 97.0425C119.001 96.7305 118.877 96.4277 118.644 96.1341C118.406 95.8489 118.064 95.5753 117.618 95.3135C116.903 94.8936 116.277 94.7113 115.74 94.7666C115.199 94.8303 114.777 95.11 114.475 95.6058Z" fill="black"/>
<path d="M107.56 102.376C107.992 101.916 108.49 101.62 109.054 101.489C109.625 101.364 110.224 101.408 110.85 101.622C111.484 101.842 112.111 102.233 112.731 102.795C113.315 103.323 113.747 103.872 114.027 104.44C114.314 105.014 114.428 105.582 114.367 106.143C114.307 106.704 114.051 107.226 113.599 107.707C113.259 108.068 112.901 108.307 112.524 108.424C112.155 108.547 111.763 108.566 111.35 108.48C110.931 108.402 110.486 108.235 110.018 107.981L109.808 108.204C110.086 108.377 110.357 108.544 110.62 108.704C110.877 108.871 111.116 109.035 111.338 109.196C111.56 109.358 111.746 109.507 111.898 109.644L113.725 111.299L112.289 112.828L107.304 108.313L104.579 105.846L105.776 104.572L107.43 106.07L107.62 105.869C107.296 105.418 107.077 104.991 106.963 104.586C106.85 104.182 106.841 103.794 106.936 103.422C107.039 103.057 107.247 102.708 107.56 102.376ZM108.357 104.041C108.144 104.267 108.012 104.507 107.96 104.762C107.908 105.016 107.914 105.264 107.98 105.507C108.039 105.757 108.139 105.991 108.279 106.21C108.421 106.443 108.582 106.641 108.762 106.805L108.946 106.971C109.09 107.102 109.258 107.214 109.449 107.309C109.634 107.411 109.828 107.488 110.031 107.541C110.242 107.601 110.451 107.627 110.659 107.619C110.874 107.617 111.081 107.575 111.278 107.492C111.47 107.416 111.645 107.293 111.805 107.124C112.044 106.869 112.175 106.588 112.197 106.28C112.219 105.973 112.144 105.656 111.971 105.329C111.797 105.002 111.542 104.685 111.203 104.378C110.864 104.071 110.522 103.846 110.176 103.703C109.823 103.567 109.488 103.526 109.171 103.579C108.861 103.639 108.59 103.793 108.357 104.041Z" fill="black"/>
<path d="M100.747 108.707C101.096 108.459 101.455 108.304 101.823 108.245C102.19 108.185 102.549 108.227 102.897 108.371C103.238 108.521 103.55 108.787 103.832 109.168C104.085 109.511 104.232 109.841 104.272 110.157C104.304 110.479 104.245 110.801 104.095 111.122C103.944 111.443 103.721 111.781 103.425 112.134C103.129 112.488 102.77 112.863 102.348 113.258C102.113 113.497 101.926 113.696 101.788 113.853C101.65 114.011 101.57 114.157 101.548 114.292C101.527 114.426 101.571 114.567 101.68 114.715C101.847 114.941 102.071 115.073 102.353 115.11C102.627 115.153 102.935 115.053 103.276 114.81C103.498 114.651 103.68 114.463 103.821 114.243C103.954 114.03 104.031 113.79 104.053 113.525C104.073 113.273 104.021 113.006 103.898 112.725L105.713 112.057C105.873 112.455 105.955 112.836 105.959 113.202C105.969 113.576 105.904 113.931 105.765 114.268C105.624 114.618 105.42 114.948 105.152 115.258C104.884 115.567 104.56 115.858 104.179 116.129C103.576 116.559 103.011 116.812 102.486 116.889C101.954 116.971 101.442 116.877 100.952 116.608C100.468 116.346 99.9925 115.899 99.526 115.268L98.7484 114.216C98.5526 113.951 98.3442 113.677 98.1232 113.395C97.8999 113.126 97.6738 112.853 97.4449 112.575C97.2217 112.306 96.9934 112.047 96.7601 111.796L98.2841 110.711C98.4634 110.905 98.6572 111.117 98.8653 111.35C99.0791 111.59 99.2948 111.841 99.5123 112.102L99.7028 111.967C99.5813 111.589 99.5356 111.199 99.5657 110.797C99.5877 110.401 99.6949 110.022 99.8871 109.659C100.079 109.296 100.366 108.979 100.747 108.707ZM100.94 110.443C100.789 110.551 100.651 110.684 100.527 110.844C100.409 111.012 100.315 111.197 100.247 111.4C100.171 111.609 100.132 111.834 100.128 112.074C100.124 112.315 100.161 112.562 100.239 112.815L100.925 113.719L100.617 113.867C100.677 113.67 100.779 113.472 100.923 113.274C101.066 113.089 101.228 112.908 101.412 112.73C101.587 112.557 101.76 112.381 101.929 112.201C102.099 112.02 102.24 111.842 102.353 111.667C102.466 111.492 102.529 111.315 102.544 111.139C102.564 110.969 102.502 110.787 102.358 110.593C102.186 110.359 101.968 110.228 101.706 110.201C101.441 110.187 101.186 110.268 100.94 110.443Z" fill="black"/>
<path d="M90.7377 112.01C91.0851 111.853 91.4579 111.726 91.8559 111.631C92.2499 111.527 92.6424 111.466 93.0336 111.448C93.4158 111.435 93.77 111.476 94.096 111.572L94.3178 113.459C93.8972 113.3 93.4448 113.245 92.9605 113.294C92.4631 113.339 92.0096 113.454 91.5998 113.639C91.1277 113.853 90.7809 114.126 90.5594 114.46C90.3249 114.788 90.2178 115.181 90.238 115.639C90.2535 116.109 90.3878 116.636 90.6408 117.221L91.1209 118.451L91.4015 118.324C91.2067 117.702 91.1255 117.161 91.158 116.701C91.1905 116.241 91.3216 115.853 91.5513 115.538C91.7762 115.234 92.0935 114.99 92.5033 114.805C93.0199 114.571 93.5115 114.503 93.9779 114.599C94.4355 114.699 94.8703 114.959 95.2824 115.376C95.6897 115.807 96.0678 116.394 96.4167 117.137L97.7712 120.023L95.8471 120.893L94.7081 118.467C94.3305 117.662 93.9684 117.121 93.622 116.843C93.2666 116.569 92.893 116.521 92.501 116.698C92.2961 116.791 92.1337 116.928 92.0137 117.109C91.8978 117.3 91.8312 117.526 91.8139 117.788C91.7966 118.05 91.8266 118.344 91.9038 118.67C91.9762 119.008 92.1047 119.374 92.2894 119.767L93.3484 122.023L91.4243 122.894L89.0539 117.844C88.7994 117.302 88.6165 116.785 88.5052 116.295C88.3979 115.814 88.3643 115.362 88.4043 114.942C88.4313 114.516 88.5384 114.123 88.7257 113.763C88.8999 113.398 89.1563 113.07 89.4949 112.779C89.8246 112.492 90.2389 112.235 90.7377 112.01Z" fill="black"/>
<path d="M79.9589 122.945L81.6794 123.779L80.3847 125.394L80.4304 125.489L82.5179 125.4L82.2723 127.313L80.2711 126.583L80.2081 126.652L80.9493 128.581L78.9895 128.898L79.0613 126.837L78.9646 126.794L77.3512 128.109L76.4645 126.379L78.4562 125.808L78.454 125.706L76.7147 124.582L78.0718 123.25L79.2802 124.943L79.3818 124.926L79.9589 122.945Z" fill="black"/>
<path d="M64.107 118.691C64.8572 118.776 65.517 118.958 66.0865 119.236C66.6461 119.513 67.1063 119.881 67.4668 120.338C67.8176 120.795 68.0646 121.337 68.2077 121.964C68.3508 122.591 68.3765 123.292 68.2849 124.066C68.1899 124.87 67.999 125.565 67.7123 126.153C67.4147 126.749 67.0408 127.239 66.5904 127.624C66.1292 128.018 65.603 128.292 65.012 128.448C64.4197 128.613 63.7729 128.655 63.0714 128.575C62.5161 128.512 62.018 128.383 61.577 128.187C61.1361 127.991 60.7658 127.741 60.4662 127.435C60.1666 127.13 59.9463 126.78 59.8053 126.386C59.6643 125.992 59.6215 125.56 59.677 125.092L61.6929 124.827C61.6345 125.237 61.6772 125.586 61.8209 125.874C61.9646 126.162 62.1741 126.394 62.4494 126.571C62.715 126.746 63.0134 126.853 63.3447 126.891C63.6272 126.923 63.9165 126.898 64.2126 126.815C64.5088 126.733 64.7841 126.575 65.0387 126.342C65.2922 126.119 65.5115 125.81 65.6965 125.414C65.8804 125.028 66.0074 124.539 66.0775 123.946C66.168 123.181 66.1295 122.546 65.9619 122.042C65.7944 121.539 65.5245 121.149 65.1522 120.874C64.7799 120.599 64.3453 120.433 63.8484 120.377C63.332 120.318 62.9104 120.377 62.5835 120.553C62.2555 120.738 62.0078 120.996 61.8404 121.326C61.673 121.656 61.5613 122.016 61.5052 122.407L59.6831 121.909C59.7442 121.392 59.8744 120.917 60.0737 120.485C60.2718 120.061 60.5466 119.7 60.898 119.401C61.2493 119.102 61.6945 118.886 62.2334 118.753C62.7616 118.63 63.3861 118.609 64.107 118.691Z" fill="black"/>
<path d="M54.1318 116.501C54.8641 116.749 55.4588 117.109 55.9157 117.58C56.3694 118.06 56.6562 118.63 56.776 119.292C56.8926 119.964 56.8035 120.718 56.5088 121.555C56.2141 122.392 55.8115 123.035 55.3009 123.483C54.781 123.928 54.195 124.193 53.5426 124.277C52.8779 124.367 52.1886 124.291 51.4747 124.049C50.7517 123.804 50.1617 123.446 49.7047 122.975C49.2386 122.501 48.9472 121.929 48.8306 121.258C48.7015 120.593 48.7843 119.841 49.079 119.004C49.3801 118.149 49.7952 117.5 50.3243 117.058C50.8442 116.613 51.4349 116.35 52.0965 116.269C52.7488 116.185 53.4272 116.262 54.1318 116.501ZM53.5481 117.938C53.1959 117.818 52.8704 117.8 52.5717 117.882C52.2638 117.961 51.9919 118.143 51.756 118.43C51.5077 118.723 51.3003 119.106 51.1337 119.579C50.9576 120.079 50.8781 120.526 50.8955 120.919C50.9003 121.318 51.0005 121.653 51.196 121.923C51.3883 122.202 51.6792 122.407 52.0685 122.539C52.4115 122.656 52.737 122.674 53.0449 122.596C53.3529 122.517 53.6294 122.335 53.8745 122.052C54.1103 121.765 54.3131 121.381 54.4829 120.898C54.7552 120.125 54.8088 119.486 54.6439 118.982C54.4696 118.475 54.1044 118.127 53.5481 117.938Z" fill="black"/>
<path d="M47.6838 114.26L45.3061 118.165L43.7209 120.768L42.231 119.894L43.4816 117.868L43.2543 117.735C42.8429 118.166 42.4423 118.487 42.0525 118.695C41.6491 118.907 41.244 119 40.8369 118.975C40.4248 118.957 40.0083 118.825 39.5875 118.578C38.8215 118.128 38.4059 117.526 38.3407 116.77C38.2622 116.017 38.5625 115.083 39.2419 113.967L41.3327 110.534L43.1509 111.601L41.1808 114.836C40.7682 115.513 40.5698 116.064 40.5856 116.489C40.5964 116.921 40.7996 117.253 41.1952 117.486C41.5235 117.678 41.8642 117.738 42.2173 117.665C42.5653 117.6 42.9039 117.428 43.2331 117.15C43.5539 116.868 43.8519 116.51 44.127 116.077L45.8782 113.201L47.6838 114.26Z" fill="black"/>
<path d="M37.0839 106.907C37.7395 107.457 38.0771 108.032 38.0967 108.632C38.1025 109.232 37.7834 109.902 37.1394 110.64L34.9397 113.163L35.7778 113.867L34.6939 115.066L34.1463 114.606C33.8941 114.407 33.677 114.301 33.4951 114.287C33.3058 114.268 33.1102 114.344 32.9082 114.517L32.1142 115.161L31.1978 114.391L32.3168 113.108L30.8417 111.868L31.9607 110.585L33.4358 111.824L35.5303 109.421C35.7599 109.158 35.8655 108.911 35.8472 108.68C35.8226 108.457 35.6836 108.239 35.4303 108.026C35.2888 107.907 35.1419 107.809 34.9898 107.732C34.8302 107.649 34.6733 107.599 34.519 107.584L35.791 106.125C36.0783 106.239 36.3283 106.367 36.5412 106.508C36.754 106.649 36.9349 106.781 37.0839 106.907Z" fill="black"/>
<path d="M32.9805 102.941C33.2586 103.264 33.4413 103.604 33.5287 103.96C33.6161 104.316 33.5993 104.67 33.4782 105.022C33.3508 105.366 33.1034 105.69 32.7359 105.994C32.4059 106.267 32.0817 106.435 31.7631 106.497C31.4382 106.552 31.1071 106.517 30.7699 106.393C30.4326 106.269 30.0737 106.075 29.6929 105.811C29.3122 105.547 28.9054 105.223 28.4726 104.838C28.2127 104.625 27.9976 104.457 27.8274 104.333C27.6572 104.209 27.503 104.142 27.3648 104.13C27.2266 104.119 27.0863 104.172 26.9438 104.29C26.7263 104.47 26.6089 104.699 26.5917 104.978C26.5681 105.249 26.6922 105.543 26.964 105.859C27.1409 106.065 27.3459 106.229 27.5789 106.351C27.8056 106.466 28.0545 106.525 28.3258 106.527C28.5832 106.528 28.8503 106.458 29.127 106.317L29.9372 108.045C29.5452 108.231 29.1635 108.339 28.792 108.37C28.413 108.406 28.0473 108.369 27.6951 108.257C27.3291 108.144 26.979 107.968 26.6449 107.728C26.3108 107.489 25.992 107.192 25.6887 106.839C25.2083 106.279 24.9102 105.745 24.7944 105.237C24.6722 104.721 24.7302 104.214 24.9685 103.714C25.1992 103.221 25.6183 102.723 26.2258 102.221L27.2382 101.383C27.4931 101.172 27.7562 100.949 28.0274 100.712C28.2847 100.474 28.5458 100.232 28.8106 99.9882C29.0679 99.7501 29.3152 99.5078 29.5524 99.2612L30.7658 100.675C30.5823 100.864 30.38 101.069 30.159 101.29C29.9305 101.517 29.6913 101.746 29.4415 101.978L29.5932 102.155C29.9678 102.008 30.3604 101.935 30.7711 101.936C31.1754 101.928 31.5688 102.006 31.9515 102.168C32.3341 102.33 32.6771 102.587 32.9805 102.941ZM31.2306 103.255C31.1105 103.115 30.9647 102.99 30.7933 102.88C30.6144 102.776 30.4194 102.699 30.2081 102.647C29.9906 102.588 29.7594 102.565 29.5146 102.578C29.2698 102.592 29.0215 102.646 28.7696 102.741L27.9017 103.478L27.7287 103.187C27.9336 103.232 28.1419 103.317 28.3536 103.444C28.5514 103.57 28.7475 103.717 28.9418 103.883C29.1298 104.042 29.3216 104.199 29.5171 104.352C29.7126 104.505 29.9035 104.63 30.0899 104.727C30.2763 104.825 30.4599 104.875 30.6407 104.876C30.8141 104.884 30.9945 104.81 31.182 104.655C31.4069 104.469 31.5237 104.246 31.5323 103.988C31.5271 103.727 31.4265 103.483 31.2306 103.255Z" fill="black"/>
<path d="M26.3887 93.872C26.714 94.4436 26.913 94.9907 26.9857 95.5132C27.0584 96.0358 27.0219 96.5245 26.8763 96.9793C26.7259 97.4257 26.4816 97.8354 26.1433 98.2084C25.7965 98.586 25.3705 98.9134 24.8653 99.1904C24.3344 99.4815 23.81 99.6754 23.292 99.7719C22.7654 99.8732 22.2581 99.8702 21.7701 99.7628C21.2821 99.6555 20.831 99.4452 20.4168 99.1319C19.9978 98.8103 19.6328 98.3763 19.3219 97.8299C19.0062 97.2752 18.8302 96.7486 18.7937 96.2503C18.7525 95.7435 18.8295 95.2767 19.0247 94.8499C19.2114 94.4277 19.5015 94.059 19.8952 93.7439L21.3761 95.132C21.1031 95.3038 20.9059 95.5001 20.7844 95.7211C20.6497 95.9384 20.5878 96.1653 20.5989 96.4018C20.6099 96.6384 20.6848 96.8785 20.8235 97.1223C20.9574 97.3576 21.1217 97.5377 21.3164 97.6626C21.511 97.7875 21.7384 97.8613 21.9985 97.8841C22.2453 97.9031 22.5163 97.8759 22.8114 97.8022C23.1018 97.7202 23.4139 97.5876 23.7479 97.4045C24.2102 97.151 24.5706 96.8762 24.8291 96.5801C25.0789 96.2886 25.2225 95.9783 25.2598 95.6491C25.2838 95.3161 25.1953 94.9731 24.9944 94.6201C24.8031 94.2839 24.5839 94.0567 24.3369 93.9385C24.0851 93.8119 23.8301 93.7587 23.572 93.7789C23.3053 93.8039 23.0492 93.8671 22.8037 93.9687L22.2336 92.197C22.5819 92.0391 22.9441 91.9452 23.3204 91.9153C23.6966 91.8855 24.0678 91.9356 24.4339 92.0657C24.8 92.1957 25.1501 92.4063 25.4843 92.6973C25.8098 92.993 26.1113 93.3845 26.3887 93.872Z" fill="black"/>
<path d="M22.7969 86.0933C23.0899 86.8903 23.094 87.5541 22.8095 88.0848C22.5123 88.6097 21.8978 89.0371 20.966 89.3672L17.7831 90.4945L18.1576 91.5133L16.6115 92.0302L16.3668 91.3646C16.2477 91.069 16.1125 90.8712 15.961 90.7713C15.8063 90.6624 15.5977 90.6339 15.3353 90.6859L14.3205 90.8611L13.9111 89.7471L15.5302 89.1737L14.8711 87.3805L16.4903 86.807L17.1494 88.6002L20.1801 87.5268C20.5122 87.4092 20.7284 87.2456 20.8287 87.0361C20.9197 86.8298 20.9086 86.5728 20.7954 86.2649C20.7322 86.0928 20.6538 85.9363 20.5603 85.7954C20.4635 85.6455 20.3519 85.5263 20.2256 85.438L22.0662 84.7861C22.2583 85.0251 22.4115 85.2575 22.5257 85.4831C22.64 85.7088 22.7304 85.9122 22.7969 86.0933Z" fill="black"/>
<path d="M20.3346 75.1442C20.4057 76.0272 20.1559 76.713 19.5852 77.2015C19.0047 77.6908 18.0936 77.9835 16.8518 78.0798L12.6426 78.4062L12.4746 76.3187L16.4345 76.0116C17.1776 75.954 17.7216 75.8056 18.0663 75.5664C18.4006 75.3183 18.5499 74.9736 18.5144 74.5321C18.4928 74.2633 18.4107 74.0379 18.2681 73.8558C18.115 73.6649 17.9104 73.5069 17.6544 73.3819C17.3886 73.2576 17.0864 73.17 16.7478 73.119C16.3994 73.0687 16.0243 73.0544 15.6227 73.0758L12.2347 73.3386L12.0691 71.2798L16.5863 70.9295L19.7689 70.6827L19.9045 72.3671L17.4405 72.5582L17.4602 72.803C18.0968 72.8888 18.6195 73.0269 19.0284 73.2174C19.4365 73.3982 19.747 73.6494 19.9598 73.9709C20.1718 74.2828 20.2968 74.6739 20.3346 75.1442Z" fill="black"/>
<path d="M20.3681 64.6841C20.309 65.1911 20.2067 65.6448 20.0614 66.0451C19.916 66.4455 19.7329 66.7883 19.5121 67.0736C19.2826 67.3483 19.0257 67.5617 18.7415 67.7139C18.4485 67.8554 18.1288 67.931 17.7821 67.9405L17.3539 66.2789C17.5824 66.2658 17.8036 66.1889 18.0175 66.0482C18.2324 65.8979 18.4102 65.6853 18.5509 65.4104C18.6915 65.1354 18.7858 64.7923 18.8337 64.381C18.8828 63.9601 18.8579 63.623 18.7591 63.3697C18.6505 63.1152 18.4745 62.9743 18.2308 62.9469C18.0457 62.9261 17.8917 62.9767 17.7689 63.0986C17.6472 63.2109 17.5324 63.3918 17.4243 63.6413C17.3174 63.8812 17.2081 64.1839 17.0964 64.5493C16.9663 64.9029 16.8308 65.2608 16.6899 65.6229C16.5403 65.9744 16.3595 66.2981 16.1473 66.594C15.9362 66.8804 15.6782 67.1034 15.3733 67.263C15.0696 67.413 14.6984 67.4634 14.2599 67.4141C13.7824 67.3605 13.3828 67.1896 13.061 66.9016C12.7392 66.6135 12.5087 66.2193 12.3695 65.7192C12.2217 65.2084 12.1869 64.6182 12.2649 63.9486C12.3374 63.3268 12.4886 62.7915 12.7186 62.3425C12.9487 61.8934 13.2417 61.5387 13.5979 61.2783C13.9551 61.0083 14.3732 60.8518 14.8521 60.8087L15.1809 62.5608C14.934 62.5622 14.7139 62.6295 14.5207 62.7629C14.3285 62.8866 14.1747 63.0632 14.0591 63.2925C13.9338 63.5206 13.8522 63.7974 13.8143 64.1226C13.7675 64.5243 13.7989 64.8476 13.9086 65.0925C14.0193 65.3279 14.1868 65.4581 14.4109 65.4833C14.5961 65.5041 14.7555 65.4493 14.8891 65.3189C15.0228 65.1886 15.1442 64.9939 15.2534 64.7348C15.3528 64.4746 15.4627 64.1672 15.583 63.8124C15.7044 63.4482 15.8399 63.0903 15.9895 62.7388C16.1293 62.3863 16.2993 62.0711 16.4995 61.7931C16.6997 61.5152 16.9463 61.3055 17.2392 61.1639C17.5321 61.0224 17.8978 60.9763 18.3363 61.0255C18.843 61.0824 19.2611 61.265 19.5904 61.5733C19.9208 61.8721 20.154 62.2859 20.2898 62.8147C20.4256 63.3436 20.4517 63.9667 20.3681 64.6841Z" fill="black"/>
<path d="M23.6874 51.5902C23.3742 52.3796 22.9326 52.8824 22.3626 53.0985C21.7872 53.302 21.0379 53.2274 20.1148 52.8745L16.9617 51.6689L16.5613 52.6782L15.0502 52.0695L15.3119 51.4101C15.4202 51.1105 15.4508 50.8743 15.4037 50.7013C15.3601 50.5193 15.2221 50.3632 14.9895 50.2329L14.1077 49.7098L14.5455 48.6063L16.1495 49.2196L16.8543 47.4433L18.4583 48.0565L17.7534 49.8328L20.7557 50.9807C21.0847 51.1065 21.3572 51.1228 21.5731 51.0297C21.7798 50.9331 21.9437 50.7323 22.0647 50.4273C22.1323 50.2568 22.1781 50.0884 22.2021 49.9219C22.2296 49.7464 22.2254 49.5847 22.1894 49.4366L24.0127 50.1337C23.9973 50.4378 23.957 50.7117 23.8919 50.9554C23.8268 51.1992 23.7586 51.4107 23.6874 51.5902Z" fill="black"/>
<path d="M26.9654 45.1471C26.566 45.7989 26.0845 46.2955 25.5206 46.6367C24.9484 46.973 24.32 47.1301 23.6354 47.1079C22.9424 47.0808 22.2093 46.8391 21.436 46.3826C20.6627 45.9261 20.1056 45.4063 19.7647 44.8231C19.4289 44.2317 19.2865 43.614 19.3376 42.9701C19.3854 42.313 19.6039 41.6668 19.9931 41.0315C20.3873 40.3879 20.8664 39.8955 21.4302 39.5542C21.9991 39.2048 22.6301 39.0436 23.323 39.0706C24.0127 39.0845 24.7441 39.3197 25.5174 39.7762C26.3075 40.2425 26.868 40.7756 27.1987 41.3753C27.5346 41.9667 27.6744 42.5885 27.6182 43.2407C27.5671 43.8846 27.3495 44.52 26.9654 45.1471ZM25.6542 44.2889C25.8463 43.9754 25.9324 43.6667 25.9125 43.3628C25.8977 43.0508 25.7718 42.7518 25.5349 42.4659C25.2947 42.1668 24.956 41.8883 24.5189 41.6303C24.0566 41.3574 23.6279 41.1885 23.2327 41.1238C22.8341 41.0458 22.48 41.0727 22.1704 41.2045C21.8523 41.3313 21.5872 41.568 21.3749 41.9145C21.1878 42.2198 21.1017 42.5285 21.1166 42.8406C21.1314 43.1526 21.2547 43.4558 21.4866 43.7499C21.7234 44.0358 22.0646 44.3102 22.5101 44.5731C23.2246 44.9949 23.8501 45.1788 24.3868 45.1248C24.9284 45.0626 25.3509 44.7839 25.6542 44.2889Z" fill="black"/>
<path d="M32.5856 37.5327C32.1521 37.9916 31.6533 38.2859 31.0892 38.4158C30.5178 38.5391 29.9192 38.4931 29.2933 38.2779C28.6601 38.056 28.0343 37.6636 27.4158 37.1006C26.8333 36.5703 26.4027 36.0208 26.1241 35.452C25.8383 34.8767 25.7263 34.3086 25.788 33.7476C25.8497 33.1867 26.1074 32.6662 26.5609 32.1862C26.901 31.8262 27.2597 31.5881 27.637 31.4719C28.007 31.3492 28.3985 31.3313 28.8113 31.4183C29.2308 31.4981 29.6744 31.6657 30.1423 31.9209L30.3524 31.6985C30.075 31.5248 29.8049 31.3577 29.5419 31.1971C29.2857 31.0294 29.0468 30.8645 28.8255 30.7024C28.6041 30.5403 28.4179 30.3905 28.2669 30.253L26.4438 28.5934L27.8843 27.0686L32.8574 31.5956L35.5758 34.0702L34.3753 35.3409L32.7248 33.8385L32.5348 34.0397C32.8575 34.491 33.0752 34.919 33.1879 35.3235C33.3006 35.7281 33.3085 36.1162 33.2117 36.4876C33.1078 36.8526 32.899 37.2009 32.5856 37.5327ZM31.7929 35.8657C32.0063 35.6398 32.1393 35.3998 32.192 35.1458C32.2448 34.8918 32.2387 34.6433 32.1738 34.4005C32.1157 34.1505 32.0164 33.9158 31.8761 33.6961C31.7353 33.4629 31.575 33.2645 31.3952 33.1008L31.2118 32.9339C31.068 32.8029 30.9006 32.6899 30.7095 32.5948C30.5251 32.4926 30.3313 32.4146 30.128 32.3608C29.9174 32.3005 29.7082 32.2741 29.5003 32.2818C29.2852 32.283 29.0786 32.3247 28.8805 32.407C28.689 32.4822 28.5133 32.6045 28.3532 32.7739C28.1131 33.028 27.9816 33.3088 27.9587 33.6162C27.9358 33.9237 28.0105 34.2411 28.1827 34.5685C28.3549 34.896 28.61 35.2136 28.948 35.5213C29.286 35.829 29.6278 36.0548 29.9734 36.1987C30.3257 36.3355 30.6604 36.3776 30.9777 36.325C31.2877 36.2659 31.5594 36.1127 31.7929 35.8657Z" fill="black"/>
<path d="M39.417 31.2197C39.067 31.4675 38.7081 31.6208 38.3401 31.6796C37.9722 31.7384 37.614 31.6953 37.2656 31.5504C36.9251 31.3998 36.6143 31.1332 36.3331 30.7506C36.0806 30.4071 35.9347 30.0771 35.8956 29.7606C35.8643 29.4384 35.9243 29.1169 36.0755 28.7962C36.2267 28.4754 36.4508 28.1386 36.7478 27.7858C37.0447 27.433 37.4049 27.0592 37.8282 26.6644C38.0641 26.4261 38.2513 26.2282 38.3896 26.0709C38.5279 25.9136 38.6082 25.7677 38.6303 25.6333C38.6524 25.4989 38.609 25.3575 38.5 25.2092C38.3335 24.9828 38.1094 24.8507 37.8277 24.8128C37.5538 24.7693 37.2459 24.8687 36.904 25.1109C36.6813 25.2686 36.4992 25.4569 36.3578 25.6758C36.2243 25.8891 36.1462 26.1284 36.1236 26.3937C36.1032 26.6456 36.1541 26.9123 36.2763 27.1937L34.46 27.8569C34.3007 27.4593 34.2196 27.0774 34.2167 26.7115C34.208 26.3378 34.2735 25.9827 34.4133 25.6463C34.5552 25.2965 34.7605 24.967 35.0292 24.658C35.2979 24.349 35.6231 24.0593 36.0048 23.7889C36.6092 23.3609 37.174 23.1092 37.6992 23.034C38.2324 22.9532 38.7436 23.0482 39.2329 23.3189C39.7164 23.5819 40.1906 24.0296 40.6554 24.662L41.4301 25.7159C41.6252 25.9814 41.8329 26.2557 42.0532 26.5389C42.2757 26.8087 42.5011 27.0824 42.7293 27.36C42.9518 27.6298 43.1794 27.89 43.4121 28.1408L41.8851 29.2223C41.7063 29.0284 41.5132 28.815 41.3057 28.582C41.0924 28.3413 40.8774 28.0899 40.6607 27.828L40.4698 27.9631C40.5902 28.3408 40.6349 28.7306 40.6038 29.1326C40.5807 29.5288 40.4725 29.9082 40.2793 30.2706C40.0862 30.6329 39.7987 30.9493 39.417 31.2197ZM39.2289 29.4831C39.38 29.3761 39.5179 29.2428 39.6425 29.0833C39.7614 28.916 39.8551 28.7309 39.9236 28.5281C40.0001 28.3195 40.0407 28.095 40.0452 27.8543C40.0497 27.6137 40.0131 27.3665 39.9355 27.1129L39.2522 26.2079L39.561 26.0604C39.5004 26.2576 39.3976 26.4551 39.2526 26.6527C39.1099 26.8369 38.9466 27.0179 38.7628 27.1956C38.5869 27.3676 38.4139 27.5436 38.2438 27.7234C38.0737 27.9033 37.932 28.0808 37.8189 28.2559C37.7057 28.431 37.6416 28.607 37.6265 28.7839C37.6057 28.953 37.667 29.1351 37.8105 29.3303C37.9826 29.5645 38.1999 29.6955 38.4622 29.7234C38.7268 29.7378 38.9824 29.6577 39.2289 29.4831Z" fill="black"/>
<path d="M49.4285 27.9466C49.0806 28.1028 48.7076 28.228 48.3092 28.3222C47.915 28.4252 47.5223 28.4851 47.1311 28.502C46.7488 28.5149 46.3948 28.4727 46.069 28.3755L45.8523 26.4876C46.2724 26.6484 46.7247 26.7046 47.2092 26.6564C47.7066 26.613 48.1605 26.4991 48.5708 26.3148C49.0435 26.1025 49.391 25.83 49.6134 25.4971C49.8488 25.1691 49.9569 24.7764 49.9379 24.3191C49.9237 23.849 49.7909 23.321 49.5394 22.7352L49.0626 21.5041L48.7816 21.6303C48.9748 22.2529 49.0545 22.7942 49.0208 23.254C48.987 23.7138 48.8549 24.1014 48.6244 24.4167C48.3987 24.7193 48.0807 24.9627 47.6704 25.1469C47.1531 25.3793 46.6614 25.4466 46.1952 25.349C45.738 25.2473 45.3038 24.987 44.8928 24.5681C44.4867 24.1364 44.1102 23.5485 43.7633 22.8044L42.4166 19.9153L44.343 19.05L45.4755 21.4795C45.851 22.2849 46.2115 22.827 46.5572 23.1059C46.9118 23.3807 47.2854 23.43 47.6778 23.2537C47.8829 23.1616 48.0457 23.0249 48.1662 22.8438C48.2826 22.6538 48.3498 22.4278 48.3678 22.1656C48.3858 21.9034 48.3567 21.6094 48.2803 21.2837C48.2089 20.9453 48.0813 20.579 47.8976 20.1851L46.8448 17.9263L48.7712 17.0611L51.128 22.117C51.381 22.6598 51.5625 23.1764 51.6725 23.667C51.7785 24.1488 51.8109 24.6001 51.7697 25.0209C51.7416 25.4465 51.6334 25.8392 51.4452 26.199C51.27 26.5636 51.0127 26.8909 50.6733 27.181C50.3429 27.467 49.9279 27.7222 49.4285 27.9466Z" fill="black"/>
<path d="M60.238 17.0431L58.5197 16.2045L59.8187 14.5934L59.7732 14.4983L57.6855 14.5816L57.9361 12.6691L59.9354 13.4045L59.9986 13.3359L59.2625 11.4048L61.2231 11.0929L61.1459 13.1534L61.2425 13.1966L62.8593 11.8861L63.7415 13.6184L61.7483 14.1841L61.7502 14.2862L63.4865 15.4146L62.1259 16.7428L60.922 15.0471L60.8203 15.0632L60.238 17.0431Z" fill="black"/>
<ellipse cx="70.0343" cy="69.9991" rx="32.3077" ry="32.3077" fill="black"/>
<path d="M77.2602 62.7764C77.6807 63.1969 77.6807 63.8788 77.2602 64.2993L65.0552 76.5043C64.6346 76.9249 63.9528 76.9249 63.5322 76.5043C63.1117 76.0837 63.1117 75.402 63.5322 74.9814L75.7373 62.7764C76.1578 62.3558 76.8396 62.3558 77.2602 62.7764Z" fill="#CBCA7B"/>
<path d="M62.4961 63.5378C62.4961 62.9431 62.9782 62.4609 63.573 62.4609H76.496C77.0907 62.4609 77.5729 62.9431 77.5729 63.5378V76.4608C77.5729 77.0555 77.0907 77.5377 76.496 77.5377C75.9012 77.5377 75.419 77.0555 75.419 76.4608V64.6148H63.573C62.9782 64.6148 62.4961 64.1326 62.4961 63.5378Z" fill="#CBCA7B"/>
</svg>
