<svg width="24" height="24" viewBox="0 0 24 24" fill="none" xmlns="http://www.w3.org/2000/svg">
<g clip-path="url(#clip0_780_490)">
<path d="M12 22.9598C13.1256 22.9598 14.2402 22.7381 15.2801 22.3073C16.3201 21.8766 17.265 21.2452 18.0609 20.4493C18.8568 19.6533 19.4882 18.7084 19.919 17.6685C20.3497 16.6286 20.5714 15.514 20.5714 14.3883V9.62263C20.5715 7.51695 19.7966 5.4849 18.3943 3.91406" stroke="black" stroke-width="1.5" stroke-linecap="round" stroke-linejoin="round"/>
<path d="M3.42773 11.5234V14.3863C3.42716 16.0737 3.92463 17.7236 4.85778 19.1295C5.79094 20.5353 7.11828 21.6345 8.67345 22.2892" stroke="black" stroke-width="1.5" stroke-linecap="round" stroke-linejoin="round"/>
<path d="M16.2853 2.19912C14.3166 1.06253 11.9771 0.754515 9.78134 1.34284C7.58557 1.93116 5.71343 3.36763 4.57675 5.33626C4.10871 6.1446 3.77849 7.0252 3.59961 7.94197" stroke="black" stroke-width="1.5" stroke-linecap="round" stroke-linejoin="round"/>
<path d="M11.1074 6.02343C11.7379 5.89253 12.3898 5.90482 13.0149 6.05939C13.64 6.21397 14.2225 6.50688 14.7193 6.91653C15.2162 7.32619 15.6148 7.84214 15.8857 8.42634C16.1566 9.01054 16.2929 9.6481 16.2846 10.292V13.052" stroke="black" stroke-width="1.5" stroke-linecap="round" stroke-linejoin="round"/>
<path d="M15.1877 16.6524C14.6044 17.3021 13.8366 17.7582 12.987 17.9596C12.1375 18.1609 11.2466 18.098 10.4338 17.7792C9.62095 17.4604 8.92486 16.901 8.4387 16.1757C7.95254 15.4504 7.6995 14.594 7.71344 13.721V10.2924C7.71018 9.70363 7.82683 9.12036 8.05629 8.57812" stroke="black" stroke-width="1.5" stroke-linecap="round" stroke-linejoin="round"/>
<path d="M12 10.4805V13.3433" stroke="black" stroke-width="1.5" stroke-linecap="round" stroke-linejoin="round"/>
</g>
<defs>
<clipPath id="clip0_780_490">
<rect width="24" height="24" fill="white" transform="translate(0 0.00390625)"/>
</clipPath>
</defs>
</svg>
