<svg width="24" height="25" viewBox="0 0 24 25" fill="none" xmlns="http://www.w3.org/2000/svg">
<g clip-path="url(#clip0_767_613)">
<path d="M12.0003 23.9263C18.1543 23.9263 23.1431 18.9375 23.1431 12.7835C23.1431 6.62945 18.1543 1.64062 12.0003 1.64062C5.84625 1.64062 0.857422 6.62945 0.857422 12.7835C0.857422 18.9375 5.84625 23.9263 12.0003 23.9263Z" stroke="black" stroke-width="1.5" stroke-linecap="round" stroke-linejoin="round"/>
<path d="M0.857422 12.7852H23.1431" stroke="black" stroke-width="1.5" stroke-linecap="round" stroke-linejoin="round"/>
<path d="M16.2863 12.7835C16.0758 16.8583 14.5749 20.7607 12.0006 23.9263C9.42625 20.7607 7.92536 16.8583 7.71484 12.7835C7.92536 8.70864 9.42625 4.80631 12.0006 1.64062C14.5749 4.80631 16.0758 8.70864 16.2863 12.7835V12.7835Z" stroke="black" stroke-width="1.5" stroke-linecap="round" stroke-linejoin="round"/>
</g>
<defs>
<clipPath id="clip0_767_613">
<rect width="24" height="24" fill="white" transform="translate(0 0.785156)"/>
</clipPath>
</defs>
</svg>
