<svg width="76" height="77" viewBox="0 0 76 77" fill="none" xmlns="http://www.w3.org/2000/svg">
<g opacity="0.1">
<path d="M20.8934 25.3571C30.657 25.3571 38.572 17.4422 38.572 7.67857C38.572 -2.08503 30.657 -10 20.8934 -10C11.1298 -10 3.21484 -2.08503 3.21484 7.67857C3.21484 17.4422 11.1298 25.3571 20.8934 25.3571Z" stroke="black" stroke-width="1.5" stroke-linecap="round" stroke-linejoin="round"/>
<path d="M69.1083 25.3571C78.8719 25.3571 86.7868 17.4422 86.7868 7.67857C86.7868 -2.08503 78.8719 -10 69.1083 -10C59.3447 -10 51.4297 -2.08503 51.4297 7.67857C51.4297 17.4422 59.3447 25.3571 69.1083 25.3571Z" stroke="black" stroke-width="1.5" stroke-linecap="round" stroke-linejoin="round"/>
<path d="M20.8934 73.572C30.657 73.572 38.572 65.657 38.572 55.8934C38.572 46.1298 30.657 38.2148 20.8934 38.2148C11.1298 38.2148 3.21484 46.1298 3.21484 55.8934C3.21484 65.657 11.1298 73.572 20.8934 73.572Z" stroke="black" stroke-width="1.5" stroke-linecap="round" stroke-linejoin="round"/>
<path d="M69.1083 73.572C78.8719 73.572 86.7868 65.657 86.7868 55.8934C86.7868 46.1298 78.8719 38.2148 69.1083 38.2148C59.3447 38.2148 51.4297 46.1298 51.4297 55.8934C51.4297 65.657 59.3447 73.572 69.1083 73.572Z" stroke="black" stroke-width="1.5" stroke-linecap="round" stroke-linejoin="round"/>
</g>
</svg>
