<svg width="50" height="51" viewBox="0 0 50 51" fill="none" xmlns="http://www.w3.org/2000/svg">
<path d="M16.0709 47.2121C23.9607 47.2121 30.3566 40.8161 30.3566 32.9263C30.3566 25.0366 23.9607 18.6406 16.0709 18.6406C8.18109 18.6406 1.78516 25.0366 1.78516 32.9263C1.78516 40.8161 8.18109 47.2121 16.0709 47.2121Z" stroke="white" stroke-width="1.5" stroke-linecap="round" stroke-linejoin="round"/>
<path d="M33.9283 47.2121C41.8181 47.2121 48.214 40.8161 48.214 32.9263C48.214 25.0366 41.8181 18.6406 33.9283 18.6406C26.0385 18.6406 19.6426 25.0366 19.6426 32.9263C19.6426 40.8161 26.0385 47.2121 33.9283 47.2121Z" stroke="white" stroke-width="1.5" stroke-linecap="round" stroke-linejoin="round"/>
<path d="M24.9986 32.9269C32.8884 32.9269 39.2843 26.531 39.2843 18.6412C39.2843 10.7514 32.8884 4.35547 24.9986 4.35547C17.1088 4.35547 10.7129 10.7514 10.7129 18.6412C10.7129 26.531 17.1088 32.9269 24.9986 32.9269Z" stroke="white" stroke-width="1.5" stroke-linecap="round" stroke-linejoin="round"/>
</svg>
