<svg width="24" height="24" viewBox="0 0 24 24" fill="none" xmlns="http://www.w3.org/2000/svg">
<g clip-path="url(#clip0_780_381)">
<path d="M7.71456 22.2885C11.5017 22.2885 14.5717 19.2185 14.5717 15.4314C14.5717 11.6443 11.5017 8.57422 7.71456 8.57422C3.92747 8.57422 0.857422 11.6443 0.857422 15.4314C0.857422 19.2185 3.92747 22.2885 7.71456 22.2885Z" stroke="black" stroke-width="1.5" stroke-linecap="round" stroke-linejoin="round"/>
<path d="M16.2868 22.2885C20.0739 22.2885 23.144 19.2185 23.144 15.4314C23.144 11.6443 20.0739 8.57422 16.2868 8.57422C12.4997 8.57422 9.42969 11.6443 9.42969 15.4314C9.42969 19.2185 12.4997 22.2885 16.2868 22.2885Z" stroke="black" stroke-width="1.5" stroke-linecap="round" stroke-linejoin="round"/>
<path d="M11.9997 15.433C15.7868 15.433 18.8569 12.363 18.8569 8.57589C18.8569 4.7888 15.7868 1.71875 11.9997 1.71875C8.21263 1.71875 5.14258 4.7888 5.14258 8.57589C5.14258 12.363 8.21263 15.433 11.9997 15.433Z" stroke="black" stroke-width="1.5" stroke-linecap="round" stroke-linejoin="round"/>
</g>
<defs>
<clipPath id="clip0_780_381">
<rect width="24" height="24" fill="white" transform="translate(0 0.00390625)"/>
</clipPath>
</defs>
</svg>
