<svg width="80" height="80" viewBox="0 0 80 80" fill="none" xmlns="http://www.w3.org/2000/svg">
<g opacity="0.1">
<path d="M18.5717 34.284C27.2505 34.284 34.286 27.2485 34.286 18.5698C34.286 9.89099 27.2505 2.85547 18.5717 2.85547C9.89295 2.85547 2.85742 9.89099 2.85742 18.5698C2.85742 27.2485 9.89295 34.284 18.5717 34.284Z" stroke="black" stroke-width="1.5" stroke-linecap="round" stroke-linejoin="round"/>
<path d="M61.4291 34.284C70.1079 34.284 77.1434 27.2485 77.1434 18.5698C77.1434 9.89099 70.1079 2.85547 61.4291 2.85547C52.7504 2.85547 45.7148 9.89099 45.7148 18.5698C45.7148 27.2485 52.7504 34.284 61.4291 34.284Z" stroke="black" stroke-width="1.5" stroke-linecap="round" stroke-linejoin="round"/>
<path d="M18.5717 77.1395C27.2505 77.1395 34.286 70.104 34.286 61.4252C34.286 52.7465 27.2505 45.7109 18.5717 45.7109C9.89295 45.7109 2.85742 52.7465 2.85742 61.4252C2.85742 70.104 9.89295 77.1395 18.5717 77.1395Z" stroke="black" stroke-width="1.5" stroke-linecap="round" stroke-linejoin="round"/>
<path d="M61.4291 77.1395C70.1079 77.1395 77.1434 70.104 77.1434 61.4252C77.1434 52.7465 70.1079 45.7109 61.4291 45.7109C52.7504 45.7109 45.7148 52.7465 45.7148 61.4252C45.7148 70.104 52.7504 77.1395 61.4291 77.1395Z" stroke="black" stroke-width="1.5" stroke-linecap="round" stroke-linejoin="round"/>
</g>
</svg>
