<svg width="24" height="25" viewBox="0 0 24 25" fill="none" xmlns="http://www.w3.org/2000/svg">
<g clip-path="url(#clip0_1081_449)">
<path d="M14.5717 9.13951C15.5185 9.13951 16.286 8.372 16.286 7.42522C16.286 6.47845 15.5185 5.71094 14.5717 5.71094C13.6249 5.71094 12.8574 6.47845 12.8574 7.42522C12.8574 8.372 13.6249 9.13951 14.5717 9.13951Z" stroke="black" stroke-width="1.5" stroke-linecap="round" stroke-linejoin="round"/>
<path d="M7.71456 17.7104C8.18795 17.7104 8.57171 17.3266 8.57171 16.8532C8.57171 16.3798 8.18795 15.9961 7.71456 15.9961C7.24118 15.9961 6.85742 16.3798 6.85742 16.8532C6.85742 17.3266 7.24118 17.7104 7.71456 17.7104Z" stroke="black" stroke-width="1.5" stroke-linecap="round" stroke-linejoin="round"/>
<path d="M7.71429 11.7098C8.66106 11.7098 9.42857 10.9423 9.42857 9.99554C9.42857 9.04876 8.66106 8.28125 7.71429 8.28125C6.76751 8.28125 6 9.04876 6 9.99554C6 10.9423 6.76751 11.7098 7.71429 11.7098Z" stroke="black" stroke-width="1.5" stroke-linecap="round" stroke-linejoin="round"/>
<path d="M16.3209 21.6201C16.3018 21.2876 16.1863 20.9678 15.9884 20.6999C15.7905 20.432 15.5189 20.2275 15.2066 20.1115C14.4313 19.8567 13.7723 19.3336 13.3481 18.6363C12.9239 17.939 12.7623 17.1133 12.8925 16.3076C13.0226 15.5019 13.436 14.769 14.0581 14.2408C14.6803 13.7125 15.4705 13.4235 16.2866 13.4258H19.4924C20.0422 13.4273 20.5843 13.2966 21.073 13.0446C21.5617 12.7927 21.9827 12.4269 22.3003 11.9781C22.618 11.5294 22.8231 11.0108 22.8983 10.4661C22.9735 9.92145 22.9166 9.3667 22.7324 8.84864C22.0505 6.92344 20.8527 5.22267 19.2697 3.93215C17.6867 2.64162 15.7795 1.81099 13.7564 1.53099C11.7333 1.251 9.67218 1.53242 7.7982 2.3445C5.92422 3.15659 4.30948 4.4681 3.13039 6.13574C1.9513 7.80339 1.25323 9.76302 1.11245 11.8005C0.97166 13.8381 1.39357 15.8751 2.33209 17.689C3.27061 19.503 4.68962 21.0241 6.4341 22.0862C8.17858 23.1484 10.1814 23.7106 12.2238 23.7115C13.2324 23.7143 14.2365 23.5758 15.2066 23.3001C15.563 23.2002 15.8716 22.9756 16.0761 22.6672C16.2807 22.3588 16.3676 21.9872 16.3209 21.6201V21.6201Z" stroke="black" stroke-width="1.5" stroke-linecap="round" stroke-linejoin="round"/>
</g>
<defs>
<clipPath id="clip0_1081_449">
<rect width="24" height="24" fill="white" transform="translate(0 0.570312)"/>
</clipPath>
</defs>
</svg>
