<svg width="30" height="31" viewBox="0 0 30 31" fill="none" xmlns="http://www.w3.org/2000/svg">
<g clip-path="url(#clip0_749_926)">
<path d="M6.96512 13.6412C10.2197 13.6412 12.858 11.0029 12.858 7.74833C12.858 4.49379 10.2197 1.85547 6.96512 1.85547C3.71059 1.85547 1.07227 4.49379 1.07227 7.74833C1.07227 11.0029 3.71059 13.6412 6.96512 13.6412Z" stroke="#CBCA7B" stroke-width="1.5" stroke-linecap="round" stroke-linejoin="round"/>
<path d="M23.0374 13.6412C26.2919 13.6412 28.9302 11.0029 28.9302 7.74833C28.9302 4.49379 26.2919 1.85547 23.0374 1.85547C19.7829 1.85547 17.1445 4.49379 17.1445 7.74833C17.1445 11.0029 19.7829 13.6412 23.0374 13.6412Z" stroke="#CBCA7B" stroke-width="1.5" stroke-linecap="round" stroke-linejoin="round"/>
<path d="M6.96512 29.7115C10.2197 29.7115 12.858 27.0732 12.858 23.8186C12.858 20.5641 10.2197 17.9258 6.96512 17.9258C3.71059 17.9258 1.07227 20.5641 1.07227 23.8186C1.07227 27.0732 3.71059 29.7115 6.96512 29.7115Z" stroke="#CBCA7B" stroke-width="1.5" stroke-linecap="round" stroke-linejoin="round"/>
<path d="M23.0374 29.7115C26.2919 29.7115 28.9302 27.0732 28.9302 23.8186C28.9302 20.5641 26.2919 17.9258 23.0374 17.9258C19.7829 17.9258 17.1445 20.5641 17.1445 23.8186C17.1445 27.0732 19.7829 29.7115 23.0374 29.7115Z" stroke="#CBCA7B" stroke-width="1.5" stroke-linecap="round" stroke-linejoin="round"/>
</g>
<defs>
<clipPath id="clip0_749_926">
<rect width="30" height="30" fill="white" transform="translate(0 0.785156)"/>
</clipPath>
</defs>
</svg>
