<svg width="24" height="25" viewBox="0 0 24 25" fill="none" xmlns="http://www.w3.org/2000/svg">
<g clip-path="url(#clip0_793_876)">
<path d="M12.8051 12.6119C12.5508 12.7223 12.2766 12.7793 11.9993 12.7793C11.7221 12.7793 11.4479 12.7223 11.1936 12.6119L1.4222 8.0862C1.26353 8.00617 1.13019 7.88367 1.03702 7.73233C0.94386 7.581 0.894531 7.40677 0.894531 7.22906C0.894531 7.05135 0.94386 6.87712 1.03702 6.72579C1.13019 6.57445 1.26353 6.45195 1.4222 6.37192L11.1936 1.81192C11.4479 1.70151 11.7221 1.64453 11.9993 1.64453C12.2766 1.64453 12.5508 1.70151 12.8051 1.81192L22.5765 6.33763C22.7352 6.41766 22.8685 6.54017 22.9617 6.6915C23.0548 6.84284 23.1042 7.01706 23.1042 7.19477C23.1042 7.37249 23.0548 7.54671 22.9617 7.69805C22.8685 7.84938 22.7352 7.97189 22.5765 8.05192L12.8051 12.6119Z" stroke="black" stroke-width="1.5" stroke-linecap="round" stroke-linejoin="round"/>
<path d="M23.1431 13.3828L12.686 18.2C12.4627 18.3018 12.22 18.3545 11.9746 18.3545C11.7291 18.3545 11.4865 18.3018 11.2631 18.2L0.857422 13.3828" stroke="black" stroke-width="1.5" stroke-linecap="round" stroke-linejoin="round"/>
<path d="M23.1431 18.9531L12.686 23.7703C12.4627 23.8721 12.22 23.9249 11.9746 23.9249C11.7291 23.9249 11.4865 23.8721 11.2631 23.7703L0.857422 18.9531" stroke="black" stroke-width="1.5" stroke-linecap="round" stroke-linejoin="round"/>
</g>
<defs>
<clipPath id="clip0_793_876">
<rect width="24" height="24" fill="white" transform="translate(0 0.785156)"/>
</clipPath>
</defs>
</svg>
