<svg width="166" height="41" viewBox="0 0 166 41" fill="none" xmlns="http://www.w3.org/2000/svg">
<g clip-path="url(#clip0_713_9374)">
<path d="M50.6406 28.2376H62.3114V24.7254H54.7887V11.4961H50.6406V28.2376Z" fill="black"/>
<path d="M69.226 25.8965C67.5621 25.8965 66.6949 24.4448 66.6949 22.2672C66.6949 20.0897 67.5621 18.6146 69.226 18.6146C70.8899 18.6146 71.7804 20.0897 71.7804 22.2672C71.7804 24.4448 70.8899 25.8965 69.226 25.8965ZM69.2494 28.6126C73.1162 28.6126 75.6472 25.8731 75.6472 22.2672C75.6472 18.6614 73.1162 15.9219 69.2494 15.9219C65.406 15.9219 62.8281 18.6614 62.8281 22.2672C62.8281 25.8731 65.406 28.6126 69.2494 28.6126Z" fill="black"/>
<path d="M82.3393 32.3823C84.1204 32.3823 85.6905 31.9843 86.7451 31.0477C87.706 30.1814 88.3387 28.8701 88.3387 27.0672V16.2497H84.6828V17.5375H84.6359C83.9329 16.5306 82.8548 15.8984 81.2612 15.8984C78.285 15.8984 76.2227 18.3804 76.2227 21.8926C76.2227 25.5687 78.7302 27.5823 81.4253 27.5823C82.8783 27.5823 83.7923 26.997 84.4953 26.2009H84.5891V27.395C84.5891 28.8467 83.9094 29.6897 82.2924 29.6897C81.0269 29.6897 80.3941 29.1511 80.1832 28.5189H76.4804C76.8554 31.0243 79.0349 32.3823 82.3393 32.3823ZM82.3158 24.7492C80.8863 24.7492 79.9489 23.5784 79.9489 21.7755C79.9489 19.9492 80.8863 18.7784 82.3158 18.7784C83.9094 18.7784 84.7531 20.1365 84.7531 21.7521C84.7531 23.4379 83.9797 24.7492 82.3158 24.7492Z" fill="black"/>
<path d="M95.8568 25.8965C94.1929 25.8965 93.3258 24.4448 93.3258 22.2672C93.3258 20.0897 94.1929 18.6146 95.8568 18.6146C97.5207 18.6146 98.4113 20.0897 98.4113 22.2672C98.4113 24.4448 97.5207 25.8965 95.8568 25.8965ZM95.8803 28.6126C99.7471 28.6126 102.278 25.8731 102.278 22.2672C102.278 18.6614 99.7471 15.9219 95.8803 15.9219C92.0369 15.9219 89.459 18.6614 89.459 22.2672C89.459 25.8731 92.0369 28.6126 95.8803 28.6126Z" fill="black"/>
<path d="M103.393 28.2376H107.213V16.2493H103.393V28.2376ZM103.393 14.5868H107.213V11.4961H103.393V14.5868Z" fill="black"/>
<path d="M108.871 32.195H112.691V26.997H112.738C113.488 28.0038 114.589 28.6126 116.136 28.6126C119.276 28.6126 121.362 26.1306 121.362 22.2438C121.362 18.6379 119.417 15.8984 116.23 15.8984C114.589 15.8984 113.418 16.6243 112.597 17.7014H112.527V16.2497H108.871V32.195ZM115.152 25.6623C113.511 25.6623 112.574 24.3277 112.574 22.3843C112.574 20.4409 113.418 18.9658 115.081 18.9658C116.722 18.9658 117.495 20.3238 117.495 22.3843C117.495 24.4214 116.605 25.6623 115.152 25.6623Z" fill="black"/>
<path d="M127.581 28.6126C130.722 28.6126 133.042 27.2545 133.042 24.6321C133.042 21.5648 130.558 21.0262 128.449 20.675C126.925 20.394 125.566 20.277 125.566 19.434C125.566 18.6848 126.293 18.3336 127.23 18.3336C128.285 18.3336 129.011 18.6614 129.152 19.7384H132.667C132.479 17.3736 130.652 15.8984 127.253 15.8984C124.418 15.8984 122.074 17.2097 122.074 19.7384C122.074 22.5482 124.301 23.1101 126.386 23.4614C127.98 23.7423 129.433 23.8594 129.433 24.9365C129.433 25.7092 128.706 26.1306 127.558 26.1306C126.293 26.1306 125.496 25.5453 125.355 24.3511H121.746C121.863 26.997 124.066 28.6126 127.581 28.6126Z" fill="black"/>
<path d="M138.23 28.5895C139.894 28.5895 140.949 27.9339 141.816 26.7632H141.886V28.2383H145.542V16.25H141.722V22.9466C141.722 24.3749 140.925 25.3583 139.613 25.3583C138.394 25.3583 137.808 24.6324 137.808 23.3212V16.25H134.012V24.1173C134.012 26.7866 135.465 28.5895 138.23 28.5895Z" fill="black"/>
<path d="M147.203 28.238H151.023V21.518C151.023 20.0897 151.726 19.0828 152.921 19.0828C154.07 19.0828 154.609 19.8321 154.609 21.1199V28.238H158.429V21.518C158.429 20.0897 159.108 19.0828 160.327 19.0828C161.475 19.0828 162.014 19.8321 162.014 21.1199V28.238H165.834V20.4409C165.834 17.7482 164.475 15.8984 161.756 15.8984C160.21 15.8984 158.921 16.554 157.983 18.0058H157.936C157.327 16.7179 156.132 15.8984 154.562 15.8984C152.828 15.8984 151.679 16.7179 150.929 17.9589H150.859V16.2497H147.203V28.238Z" fill="black"/>
<path fill-rule="evenodd" clip-rule="evenodd" d="M20.1974 39.9423C30.9832 39.9423 39.7268 31.2064 39.7268 20.4301C39.7268 9.65388 30.9832 0.917969 20.1974 0.917969C9.41157 0.917969 0.667969 9.65388 0.667969 20.4301C0.667969 31.2064 9.41157 39.9423 20.1974 39.9423ZM26.2899 10.0076C26.5864 8.95509 25.5642 8.33273 24.6306 8.99728L11.5977 18.2736C10.5852 18.9943 10.7445 20.4301 11.837 20.4301H15.2689V20.4036H21.9575L16.5075 22.3249L14.1049 30.8528C13.8084 31.9053 14.8305 32.5276 15.7642 31.863L28.7971 22.5867C29.8096 21.866 29.6502 20.4301 28.5578 20.4301H23.3534L26.2899 10.0076Z" fill="#CBCA7B"/>
</g>
<defs>
<clipPath id="clip0_713_9374">
<rect width="166" height="40" fill="white" transform="translate(0 0.785156)"/>
</clipPath>
</defs>
</svg>
