<svg width="166" height="41" viewBox="0 0 166 41" fill="none" xmlns="http://www.w3.org/2000/svg">
<g clip-path="url(#clip0_713_9025)">
<path d="M50.0703 29.3938H61.7411V25.8816H54.2184V12.6523H50.0703V29.3938Z" fill="black"/>
<path d="M68.6556 27.0528C66.9917 27.0528 66.1246 25.6011 66.1246 23.4235C66.1246 21.2459 66.9917 19.7708 68.6556 19.7708C70.3196 19.7708 71.2101 21.2459 71.2101 23.4235C71.2101 25.6011 70.3196 27.0528 68.6556 27.0528ZM68.6791 29.7689C72.5459 29.7689 75.0769 27.0293 75.0769 23.4235C75.0769 19.8176 72.5459 17.0781 68.6791 17.0781C64.8357 17.0781 62.2578 19.8176 62.2578 23.4235C62.2578 27.0293 64.8357 29.7689 68.6791 29.7689Z" fill="black"/>
<path d="M81.7709 33.5386C83.552 33.5386 85.1222 33.1405 86.1767 32.204C87.1376 31.3376 87.7703 30.0264 87.7703 28.2235V17.4059H84.1144V18.6937H84.0676C83.3645 17.6869 82.2865 17.0547 80.6929 17.0547C77.7166 17.0547 75.6543 19.5366 75.6543 23.0488C75.6543 26.7249 78.1619 28.7386 80.8569 28.7386C82.3099 28.7386 83.2239 28.1532 83.927 27.3571H84.0207V28.5513C84.0207 30.003 83.3411 30.8459 81.724 30.8459C80.4585 30.8459 79.8258 30.3074 79.6149 29.6752H75.9121C76.287 32.1805 78.4665 33.5386 81.7709 33.5386ZM81.7475 25.9054C80.3179 25.9054 79.3805 24.7347 79.3805 22.9318C79.3805 21.1054 80.3179 19.9347 81.7475 19.9347C83.3411 19.9347 84.1847 21.2927 84.1847 22.9083C84.1847 24.5942 83.4114 25.9054 81.7475 25.9054Z" fill="black"/>
<path d="M95.2865 27.0528C93.6226 27.0528 92.7555 25.6011 92.7555 23.4235C92.7555 21.2459 93.6226 19.7708 95.2865 19.7708C96.9504 19.7708 97.8406 21.2459 97.8406 23.4235C97.8406 25.6011 96.9504 27.0528 95.2865 27.0528ZM95.3099 29.7689C99.1764 29.7689 101.707 27.0293 101.707 23.4235C101.707 19.8176 99.1764 17.0781 95.3099 17.0781C91.4666 17.0781 88.8887 19.8176 88.8887 23.4235C88.8887 27.0293 91.4666 29.7689 95.3099 29.7689Z" fill="black"/>
<path d="M102.824 29.3938H106.644V17.4055H102.824V29.3938ZM102.824 15.7431H106.644V12.6523H102.824V15.7431Z" fill="black"/>
<path d="M108.301 33.3513H112.121V28.1532H112.168C112.918 29.1601 114.019 29.7688 115.566 29.7688C118.706 29.7688 120.792 27.2869 120.792 23.4001C120.792 19.7942 118.847 17.0547 115.659 17.0547C114.019 17.0547 112.847 17.7805 112.027 18.8576H111.957V17.4059H108.301V33.3513ZM114.581 26.8186C112.941 26.8186 112.004 25.484 112.004 23.5405C112.004 21.5971 112.847 20.122 114.511 20.122C116.152 20.122 116.925 21.4801 116.925 23.5405C116.925 25.5776 116.034 26.8186 114.581 26.8186Z" fill="black"/>
<path d="M127.011 29.7688C130.152 29.7688 132.472 28.4108 132.472 25.7883C132.472 22.721 129.987 22.1825 127.878 21.8313C126.355 21.5503 124.996 21.4332 124.996 20.5903C124.996 19.841 125.722 19.4898 126.66 19.4898C127.714 19.4898 128.441 19.8176 128.581 20.8947H132.097C131.909 18.5298 130.081 17.0547 126.683 17.0547C123.847 17.0547 121.504 18.3659 121.504 20.8947C121.504 23.7044 123.73 24.2664 125.816 24.6176C127.41 24.8986 128.863 25.0157 128.863 26.0927C128.863 26.8654 128.136 27.2869 126.988 27.2869C125.722 27.2869 124.925 26.7015 124.785 25.5074H121.176C121.293 28.1532 123.496 29.7688 127.011 29.7688Z" fill="black"/>
<path d="M137.662 29.7458C139.326 29.7458 140.38 29.0902 141.247 27.9194H141.318V29.3945H144.974V17.4062H141.154V24.1028C141.154 25.5311 140.357 26.5145 139.044 26.5145C137.826 26.5145 137.24 25.7887 137.24 24.4775V17.4062H133.443V25.2736C133.443 27.9428 134.896 29.7458 137.662 29.7458Z" fill="black"/>
<path d="M146.635 29.3942H150.455V22.6742C150.455 21.2459 151.158 20.2391 152.353 20.2391C153.501 20.2391 154.04 20.9883 154.04 22.2762V29.3942H157.86V22.6742C157.86 21.2459 158.54 20.2391 159.759 20.2391C160.907 20.2391 161.446 20.9883 161.446 22.2762V29.3942H165.266V21.5971C165.266 18.9044 163.907 17.0547 161.188 17.0547C159.641 17.0547 158.352 17.7103 157.415 19.162H157.368C156.759 17.8742 155.564 17.0547 153.993 17.0547C152.259 17.0547 151.111 17.8742 150.361 19.1152H150.291V17.4059H146.635V29.3942Z" fill="black"/>
<path fill-rule="evenodd" clip-rule="evenodd" d="M19.629 40.1259C30.4149 40.1259 39.1584 31.39 39.1584 20.6137C39.1584 9.83746 30.4149 1.10156 19.629 1.10156C8.84321 1.10156 0.0996094 9.83746 0.0996094 20.6137C0.0996094 31.39 8.84321 40.1259 19.629 40.1259ZM22.6433 16.1772C24.308 14.5139 24.308 11.8172 22.6433 10.1539C20.9786 8.49061 18.2795 8.49061 16.6147 10.1539C14.95 11.8172 14.95 14.5139 16.6147 16.1772L19.629 19.1888L22.6433 16.1772ZM24.0695 23.6254C25.7343 25.2887 28.4333 25.2887 30.0981 23.6254C31.7628 21.9621 31.7628 19.2654 30.0981 17.6021C28.4333 15.9389 25.7343 15.9389 24.0695 17.6021L21.0552 20.6138L24.0695 23.6254ZM22.6433 31.0736C24.308 29.4103 24.308 26.7136 22.6433 25.0503L19.629 22.0387L16.6147 25.0503C14.95 26.7136 14.95 29.4103 16.6147 31.0736C18.2795 32.7369 20.9786 32.7369 22.6433 31.0736ZM9.15992 23.6254C7.49519 21.9621 7.49519 19.2654 9.15992 17.6021C10.8247 15.9389 13.5238 15.9389 15.1886 17.6021L18.2028 20.6138L15.1886 23.6254C13.5238 25.2887 10.8247 25.2887 9.15992 23.6254Z" fill="#CBCA7B"/>
</g>
<defs>
<clipPath id="clip0_713_9025">
<rect width="166" height="40" fill="white" transform="translate(0 0.785156)"/>
</clipPath>
</defs>
</svg>
