<svg width="40" height="41" viewBox="0 0 40 41" fill="none" xmlns="http://www.w3.org/2000/svg">
<g clip-path="url(#clip0_713_9039)">
<path d="M10.8335 35.7852C5.77084 35.7852 1.66678 31.6811 1.66678 26.6185C1.66678 22.8792 3.61336 19.2611 6.51867 18.563C7.63934 18.2937 8.53183 16.8555 8.34006 15.2138C8.08338 13.0163 6.09618 10.7962 2.16153 9.04661C1.28546 8.65706 1.65229 7.33917 2.60364 7.45828C12.8579 8.74209 19.9659 15.4272 20 24.8854C20.0001 31.3901 16.1571 35.7852 10.8335 35.7852Z" fill="black" fill-opacity="0.1"/>
<path d="M30.8335 35.7852C25.7708 35.7852 21.6668 31.6811 21.6668 26.6185C21.6668 22.8792 23.6134 19.2611 26.5187 18.563C27.6393 18.2937 28.5318 16.8555 28.3401 15.2138C28.0834 13.0163 26.0962 10.7962 22.1615 9.04661C21.2855 8.65706 21.6523 7.33917 22.6036 7.45828C32.8579 8.74209 39.9659 15.4272 40 24.8854C40.0001 31.3901 36.1571 35.7852 30.8335 35.7852Z" fill="black" fill-opacity="0.1"/>
</g>
<defs>
<clipPath id="clip0_713_9039">
<rect width="40" height="40" fill="white" transform="translate(40 40.7852) rotate(180)"/>
</clipPath>
</defs>
</svg>
