<svg width="112" height="112" viewBox="0 0 112 112" fill="none" xmlns="http://www.w3.org/2000/svg">
<circle cx="55.998" cy="55.9961" r="56" fill="#CBCA7B"/>
<path d="M58.4132 15.3188L57.8633 7.24609L59.6946 7.53248L59.8747 14.0347L59.9913 14.053L62.2959 7.93925L64.4189 8.27124L64.7972 14.8045L64.9255 14.8245L67.0317 8.67984L68.7581 8.94981L65.8203 16.4771L63.4757 16.1105L63.1539 9.59816L63.0489 9.58174L60.8045 15.6927L58.4132 15.3188Z" fill="black"/>
<path d="M70.4328 18.2772C70.1148 18.1386 69.8593 17.9534 69.6664 17.7218C69.4735 17.4902 69.3561 17.222 69.3142 16.9173C69.2794 16.6157 69.3383 16.2855 69.4906 15.9266C69.6274 15.6044 69.7988 15.3623 70.0046 15.2003C70.2176 15.0414 70.4678 14.9465 70.7551 14.9155C71.0423 14.8845 71.3709 14.8975 71.7407 14.9546C72.1105 15.0116 72.5211 15.1038 72.9724 15.2311C73.2368 15.2943 73.4527 15.3407 73.62 15.3702C73.7874 15.3997 73.9227 15.3937 74.0261 15.3519C74.1295 15.3102 74.2107 15.2197 74.2698 15.0806C74.3599 14.8682 74.3602 14.6557 74.2706 14.443C74.1883 14.2335 73.9917 14.061 73.6809 13.9256C73.4785 13.8373 73.2714 13.7905 73.0596 13.7849C72.855 13.7825 72.655 13.8299 72.4596 13.927C72.2746 14.0199 72.1085 14.1689 71.9615 14.3739L70.7479 13.3891C70.9611 13.1088 71.1954 12.8898 71.4508 12.7321C71.7093 12.5671 71.9853 12.4617 72.2788 12.4161C72.5826 12.3662 72.8983 12.3693 73.2257 12.4252C73.5532 12.4812 73.8904 12.5848 74.2373 12.736C74.7866 12.9755 75.1959 13.2624 75.4651 13.5967C75.7416 13.9342 75.8857 14.3312 75.8974 14.7876C75.9123 15.2368 75.7938 15.758 75.542 16.3512L75.1222 17.34C75.0165 17.589 74.9097 17.8506 74.8019 18.1247C74.7044 18.3947 74.6053 18.6683 74.5047 18.9456C74.4073 19.2155 74.3185 19.485 74.2386 19.7539L72.8508 19.149C72.9131 18.9418 72.9832 18.7163 73.061 18.4725C73.1419 18.2213 73.2296 17.9644 73.3239 17.7018L73.1505 17.6262C72.9352 17.8708 72.6803 18.0678 72.3856 18.2171C72.0982 18.3696 71.7876 18.4555 71.4538 18.4749C71.1201 18.4943 70.7798 18.4284 70.4328 18.2772ZM71.5731 17.4072C71.7104 17.4671 71.8607 17.5066 72.0239 17.5256C72.1902 17.5374 72.3587 17.524 72.5292 17.4855C72.707 17.4502 72.8811 17.3829 73.0517 17.2837C73.2224 17.1845 73.3806 17.0538 73.5265 16.8917L73.8795 16.0301L74.1102 16.1828C73.9469 16.2244 73.7661 16.2367 73.5677 16.2197C73.3797 16.1985 73.1855 16.1616 72.9852 16.109C72.792 16.0595 72.5973 16.0137 72.4011 15.9715C72.2048 15.9294 72.022 15.9061 71.8525 15.9017C71.6831 15.8972 71.5332 15.9274 71.403 15.9921C71.2758 16.0495 71.1734 16.1698 71.0956 16.3529C71.0023 16.5726 71 16.7799 71.0886 16.9747C71.1875 17.1654 71.349 17.3096 71.5731 17.4072Z" fill="black"/>
<path d="M78.124 22.3027C77.5425 21.9219 77.2111 21.4866 77.13 20.9968C77.0598 20.5047 77.2403 19.9204 77.6717 19.2441L79.1451 16.9338L78.4016 16.447L79.1325 15.345L79.6182 15.6631C79.8406 15.7992 80.0248 15.8629 80.1709 15.8541C80.3237 15.8497 80.4709 15.7657 80.6126 15.6022L81.1736 14.9871L81.9865 15.5193L81.237 16.6946L82.5455 17.5514L81.796 18.7266L80.4875 17.8698L79.0845 20.0695C78.9308 20.3106 78.8738 20.5249 78.9135 20.7123C78.9575 20.893 79.0919 21.0569 79.3166 21.204C79.4421 21.2862 79.5696 21.3507 79.6991 21.3975C79.8351 21.4486 79.9653 21.4722 80.0897 21.4682L79.2376 22.8041C78.9967 22.7413 78.7839 22.6636 78.5992 22.5712C78.4146 22.4788 78.2562 22.3893 78.124 22.3027Z" fill="black"/>
<path d="M82.9307 26.1227C82.5351 25.7576 82.242 25.3792 82.0513 24.9876C81.8606 24.5959 81.7617 24.2026 81.7546 23.8079C81.7534 23.4185 81.8331 23.0338 81.9939 22.6537C82.1599 22.2677 82.3992 21.9008 82.7118 21.553C83.0403 21.1876 83.3891 20.9002 83.7582 20.6908C84.1326 20.4755 84.5194 20.3472 84.9185 20.3057C85.3176 20.2643 85.7154 20.3132 86.1117 20.4525C86.5138 20.5971 86.9039 20.8439 87.2821 21.1929C87.666 21.5472 87.9364 21.9154 88.0933 22.2974C88.2559 22.6848 88.3183 23.0713 88.2804 23.4568C88.2477 23.8365 88.1225 24.2008 87.9046 24.5498L86.4182 23.8412C86.5814 23.636 86.6806 23.4309 86.7157 23.2261C86.7619 23.0207 86.7502 22.8266 86.6805 22.6436C86.6108 22.4607 86.4916 22.2913 86.3229 22.1356C86.16 21.9853 85.9884 21.8862 85.8079 21.8383C85.6275 21.7904 85.4353 21.791 85.2315 21.8402C85.0388 21.8888 84.8397 21.9801 84.6342 22.1139C84.4345 22.2532 84.2314 22.4378 84.0248 22.6677C83.7386 22.986 83.5356 23.2947 83.4157 23.5939C83.3011 23.8871 83.2723 24.1679 83.3292 24.4361C83.3973 24.7038 83.5534 24.9503 83.7978 25.1758C84.0305 25.3906 84.2561 25.5125 84.4747 25.5417C84.6991 25.5762 84.9068 25.5523 85.098 25.4699C85.2944 25.3816 85.4729 25.2659 85.6334 25.1228L86.5263 26.3674C86.3022 26.5812 86.0509 26.7483 85.7724 26.8687C85.4938 26.9891 85.1984 27.0454 84.8862 27.0376C84.5739 27.0298 84.2529 26.9547 83.9233 26.8123C83.599 26.6639 83.2681 26.4341 82.9307 26.1227Z" fill="black"/>
<path d="M86.6084 29.5151L89.6948 27.2273L93.4004 24.4805L94.4039 25.8704L92.8702 27.0073C92.7432 27.1014 92.5988 27.1986 92.4371 27.2987C92.2864 27.4005 92.1256 27.495 91.9546 27.5823C91.7882 27.676 91.6196 27.7664 91.4486 27.8537C91.2822 27.9473 91.1167 28.0354 90.9521 28.118L91.0914 28.311C91.4994 28.1469 91.8728 28.043 92.2117 27.9992C92.5616 27.9572 92.8845 27.9994 93.1805 28.1257C93.4765 28.2521 93.7452 28.4826 93.9868 28.8172C94.4096 29.4028 94.5223 29.991 94.3249 30.5818C94.1275 31.1727 93.6097 31.7788 92.7714 32.4002L90.1137 34.3703L89.1102 32.9803L91.5679 31.1585C92.0886 30.7725 92.4171 30.4105 92.5533 30.0725C92.7004 29.7362 92.6602 29.4104 92.4326 29.0951C92.2514 28.8441 92.0242 28.6914 91.751 28.6371C91.4778 28.5828 91.1753 28.6094 90.8435 28.7171C90.5227 28.8264 90.1862 29.0018 89.834 29.2431L87.605 30.8954L86.6084 29.5151Z" fill="black"/>
<path d="M94.1457 43.689C93.9776 43.1408 93.9097 42.6237 93.9419 42.1376C93.9817 41.6492 94.1164 41.2019 94.3462 40.7956C94.5834 40.387 94.9131 40.0244 95.3351 39.7079C95.767 39.3966 96.291 39.1439 96.9072 38.95C97.7864 38.6732 98.5582 38.5972 99.2226 38.722C99.8969 38.852 100.46 39.1424 100.911 39.5931C101.372 40.0491 101.708 40.6197 101.918 41.305C102.081 41.8379 102.142 42.3448 102.1 42.8256C102.068 43.3116 101.933 43.759 101.696 44.1676C101.468 44.5815 101.136 44.9491 100.699 45.2704C100.269 45.5893 99.7428 45.8469 99.1191 46.0432C98.4804 46.2443 97.8949 46.3367 97.3626 46.3206C96.8303 46.3045 96.3499 46.1886 95.9212 45.9729C95.5024 45.7624 95.1426 45.4624 94.8419 45.0728C94.5435 44.6909 94.3114 44.2296 94.1457 43.689ZM95.4559 43.3267C95.5796 43.7302 95.78 44.0345 96.0571 44.2395C96.3365 44.4521 96.6825 44.5727 97.095 44.6015C97.5076 44.6302 97.9806 44.5607 98.5141 44.3927C99.0777 44.2153 99.5315 43.9889 99.8756 43.7137C100.222 43.446 100.453 43.1394 100.57 42.7938C100.689 42.4558 100.686 42.085 100.563 41.6815C100.444 41.2932 100.243 40.9889 99.9614 40.7687C99.682 40.5561 99.3285 40.4378 98.9009 40.4138C98.4808 40.3874 97.9965 40.4605 97.448 40.6332C97.0347 40.7633 96.6793 40.9211 96.3819 41.1065C96.092 41.2897 95.8614 41.4916 95.6902 41.7125C95.5213 41.941 95.4167 42.191 95.3763 42.4625C95.3383 42.7417 95.3648 43.0297 95.4559 43.3267Z" fill="black"/>
<path d="M95.8851 52.0168C95.8309 51.2854 96.0335 50.7183 96.4929 50.3155C96.9601 49.9122 97.692 49.6726 98.6885 49.5968L102.066 49.3398L102.195 51.0691L99.0167 51.3109C98.4204 51.3562 97.9835 51.4774 97.7062 51.6744C97.4373 51.8788 97.3163 52.1638 97.3434 52.5295C97.3599 52.7521 97.4251 52.9391 97.5389 53.0903C97.6611 53.2489 97.8247 53.3804 98.0297 53.4847C98.2425 53.5885 98.4847 53.662 98.7562 53.7053C99.0355 53.748 99.3364 53.7611 99.6586 53.7446L102.377 53.5378L102.504 55.2432L98.8787 55.519L96.3247 55.7132L96.2213 54.3179L98.1986 54.1675L98.1836 53.9648C97.6732 53.8916 97.2543 53.7756 96.9269 53.6166C96.6001 53.4656 96.3518 53.2566 96.1821 52.9897C96.013 52.7307 95.914 52.4064 95.8851 52.0168Z" fill="black"/>
<path d="M96.2455 58.3124L99.2513 58.6235L102.41 58.9503L102.267 60.3661L100.118 60.1438L100.096 60.3698C100.63 60.4812 101.058 60.6297 101.38 60.8152C101.7 61.0087 101.925 61.2483 102.055 61.5342C102.184 61.8201 102.228 62.1653 102.187 62.5698C102.179 62.6491 102.167 62.732 102.151 62.8185C102.134 62.9049 102.104 63.006 102.061 63.1217L100.271 62.8645C100.347 62.744 100.4 62.6132 100.43 62.4721C100.467 62.3317 100.492 62.2061 100.503 62.095C100.534 61.7857 100.491 61.5127 100.372 61.276C100.261 61.0401 100.076 60.8406 99.8155 60.6774C99.5622 60.523 99.2461 60.4021 98.8673 60.3148L96.0728 60.0257L96.2455 58.3124Z" fill="black"/>
<path d="M93.7982 70.3238L101.98 70.9258L101.269 72.6724L94.7014 71.9308L94.6473 72.0634L99.8142 76.2431L99.1162 77.9565L92.8975 72.5348L93.7982 70.3238Z" fill="black"/>
<path d="M90.8414 76.6608L96.1061 79.9721L95.216 81.4252L89.9513 78.1138L90.8414 76.6608ZM96.41 81.1768C96.5843 80.8923 96.7793 80.7099 96.9951 80.6298C97.2067 80.5565 97.4262 80.5913 97.6535 80.7343C97.8808 80.8772 98.009 81.0611 98.038 81.2858C98.0629 81.5173 97.9882 81.7753 97.8139 82.0598C97.6355 82.3511 97.4404 82.5334 97.2288 82.6067C97.013 82.6868 96.7915 82.6554 96.5642 82.5125C96.3369 82.3695 96.2108 82.1823 96.1859 81.9508C96.1569 81.7261 96.2316 81.4681 96.41 81.1768Z" fill="black"/>
<path d="M87.0414 81.9095C87.3755 81.5171 87.7669 81.259 88.2153 81.1351C88.6698 81.0164 89.1511 81.0371 89.6592 81.1971C90.1733 81.3623 90.6865 81.6688 91.1988 82.1168C91.6813 82.5387 92.0426 82.981 92.2826 83.4436C92.5286 83.9114 92.635 84.3783 92.6019 84.8444C92.5688 85.3104 92.3774 85.7486 92.0279 86.1591C91.7657 86.4669 91.4851 86.6744 91.186 86.7815C90.8929 86.8938 90.5796 86.92 90.2461 86.86C89.9074 86.8061 89.5468 86.6804 89.1643 86.4828L89.0024 86.6729C89.2298 86.8086 89.4513 86.9391 89.6668 87.0643C89.8771 87.1956 90.0734 87.3251 90.2557 87.4529C90.4379 87.5806 90.5915 87.6992 90.7166 87.8086L92.2268 89.129L91.1164 90.4328L86.997 86.8309L84.7452 84.8619L85.6706 83.7754L87.0377 84.9708L87.1842 84.7988C86.9123 84.4347 86.7253 84.0868 86.6231 83.7553C86.5209 83.4237 86.5032 83.1028 86.5699 82.7926C86.6426 82.4875 86.7998 82.1932 87.0414 81.9095ZM87.7257 83.266C87.5612 83.4592 87.4615 83.6617 87.4267 83.8734C87.3918 84.0852 87.404 84.2906 87.4631 84.4897C87.517 84.6949 87.6034 84.8863 87.7223 85.064C87.842 85.2529 87.9764 85.4125 88.1253 85.5427L88.2772 85.6755C88.3963 85.7797 88.5339 85.8684 88.6898 85.9415C88.8406 86.0207 88.9983 86.0796 89.1629 86.1183C89.3335 86.1621 89.502 86.1778 89.6684 86.1654C89.8409 86.1582 90.0053 86.1176 90.1617 86.0438C90.313 85.976 90.4503 85.8696 90.5737 85.7248C90.7588 85.5075 90.856 85.2713 90.8654 85.0162C90.8748 84.7611 90.8056 84.5006 90.658 84.2346C90.5104 83.9686 90.2966 83.7132 90.0166 83.4684C89.7366 83.2236 89.456 83.0466 89.1747 82.9376C88.8882 82.8346 88.6186 82.8094 88.3658 82.8622C88.119 82.9202 87.9056 83.0548 87.7257 83.266Z" fill="black"/>
<path d="M80.5028 88.3435C80.915 88.0233 81.3234 87.7965 81.728 87.663C82.1312 87.5406 82.5234 87.5021 82.9048 87.5475C83.2847 87.604 83.6512 87.7412 84.0044 87.959C84.3514 88.1818 84.6757 88.4924 84.9774 88.8911C85.2742 89.2833 85.494 89.6852 85.6368 90.0967C85.7782 90.5194 85.8336 90.9334 85.8033 91.3388C85.7777 91.7505 85.6653 92.1392 85.4661 92.5049C85.2606 92.8755 84.9612 93.2136 84.5678 93.5193C84.1932 93.8103 83.8112 94.0066 83.422 94.1081C83.0327 94.2095 82.648 94.212 82.2677 94.1157C81.8874 94.0193 81.5195 93.8279 81.1639 93.5415C80.8022 93.2599 80.4621 92.8761 80.1439 92.3899L83.9533 89.3853L84.5206 90.135L81.5167 92.5139L81.6625 91.7828C81.8788 92.1472 82.112 92.4031 82.3622 92.5503C82.6062 92.7023 82.8477 92.7659 83.0866 92.741C83.3256 92.7161 83.5481 92.6236 83.7541 92.4635C83.9914 92.2792 84.1527 92.0534 84.2381 91.7862C84.3172 91.5238 84.3133 91.2304 84.2265 90.906C84.1382 90.5928 83.9648 90.2654 83.7063 89.9237C83.3042 89.3922 82.8949 89.0873 82.4786 89.0088C82.0561 88.9352 81.6512 89.0488 81.2641 89.3496C81.0892 89.4854 80.9592 89.6215 80.8741 89.758C80.7938 89.9008 80.7449 90.0393 80.7274 90.1734C80.7036 90.3124 80.7058 90.4463 80.7339 90.5752C80.7606 90.7152 80.7973 90.8424 80.8442 90.9567L79.4844 91.6363C79.3572 91.3634 79.2749 91.0908 79.2374 90.8185C79.2 90.5462 79.2167 90.267 79.2877 89.9808C79.3635 89.7009 79.5006 89.4235 79.6992 89.1487C79.8915 88.8787 80.1594 88.6103 80.5028 88.3435Z" fill="black"/>
<path d="M73.7864 92.6044C74.3464 92.3309 74.8919 92.2017 75.4231 92.2166C75.9578 92.2388 76.4498 92.41 76.8991 92.7305C77.352 93.0581 77.7355 93.5523 78.0498 94.2131C78.3641 94.8738 78.5049 95.4821 78.4723 96.038C78.4326 96.5972 78.2514 97.0885 77.9286 97.5116C77.6021 97.9454 77.1659 98.2956 76.6201 98.5621C76.0673 98.8321 75.5252 98.9597 74.994 98.9447C74.4557 98.9332 73.9602 98.7637 73.5074 98.436C73.0509 98.1191 72.6655 97.6302 72.3512 96.9694C72.0301 96.2943 71.8929 95.6753 71.9397 95.1126C71.9794 94.5533 72.1642 94.0604 72.4941 93.6337C72.8169 93.2106 73.2477 92.8675 73.7864 92.6044ZM74.2815 93.7831C74.0122 93.9146 73.8161 94.0901 73.6933 94.3093C73.5634 94.5321 73.5139 94.7952 73.5447 95.0988C73.5719 95.413 73.6743 95.7569 73.8519 96.1303C74.0398 96.5254 74.2518 96.8334 74.488 97.0544C74.7204 97.286 74.9701 97.4252 75.2369 97.472C75.5071 97.5259 75.791 97.4801 76.0887 97.3347C76.351 97.2067 76.5471 97.0312 76.677 96.8085C76.8069 96.5858 76.8599 96.3209 76.8362 96.0138C76.8054 95.7103 76.6994 95.3682 76.5183 94.9875C76.228 94.377 75.8907 93.9709 75.5064 93.7691C75.1151 93.5707 74.7068 93.5754 74.2815 93.7831Z" fill="black"/>
<path d="M64.3291 99.9741L65.7136 100.656L64.6833 102L64.7205 102.078L66.3947 101.994L66.2075 103.58L64.5983 102.985L64.5481 103.042L65.1526 104.636L63.5821 104.909L63.629 103.202L63.5513 103.167L62.2637 104.264L61.5435 102.835L63.1383 102.353L63.136 102.268L61.7349 101.346L62.8167 100.236L63.7949 101.632L63.8764 101.618L64.3291 99.9741Z" fill="black"/>
<path d="M53.5085 97.0783L54.0391 105.152L52.2084 104.861L52.044 98.3588L51.9274 98.3403L49.6081 104.448L47.486 104.111L47.1233 97.5769L46.9951 97.5565L44.8741 103.696L43.1483 103.422L46.1043 95.9017L48.448 96.2742L48.7541 102.787L48.8591 102.804L51.1182 96.6985L53.5085 97.0783Z" fill="black"/>
<path d="M41.494 94.0963C41.8117 94.2357 42.0667 94.4215 42.259 94.6536C42.4513 94.8857 42.5681 95.1542 42.6093 95.459C42.6433 95.7607 42.5836 96.0907 42.4304 96.4492C42.2928 96.7711 42.1209 97.0128 41.9147 97.1743C41.7012 97.3326 41.4508 97.4269 41.1635 97.4572C40.8761 97.4874 40.5476 97.4736 40.178 97.4156C39.8083 97.3576 39.398 97.2644 38.9469 97.136C38.6827 97.0721 38.4669 97.0252 38.2997 96.9953C38.1324 96.9653 37.997 96.971 37.8935 97.0125C37.7901 97.054 37.7086 97.1442 37.6492 97.2832C37.5585 97.4954 37.5577 97.7079 37.6468 97.9208C37.7286 98.1305 37.9248 98.3035 38.2353 98.4397C38.4374 98.5285 38.6444 98.5759 38.8562 98.5819C39.0608 98.5848 39.2609 98.538 39.4565 98.4414C39.6418 98.3489 39.8082 98.2004 39.9557 97.9958L41.167 98.9836C40.9531 99.2633 40.7182 99.4817 40.4624 99.6388C40.2035 99.8032 39.9272 99.9079 39.6336 99.9528C39.3297 100.002 39.014 99.998 38.6867 99.9412C38.3594 99.8844 38.0225 99.78 37.6759 99.6279C37.1272 99.3871 36.7186 99.0991 36.4502 98.7641C36.1746 98.4259 36.0315 98.0286 36.0208 97.5721C36.007 97.1229 36.1268 96.602 36.3801 96.0094L36.8023 95.0217C36.9087 94.773 37.0161 94.5117 37.1246 94.2378C37.2227 93.9681 37.3224 93.6947 37.4237 93.4177C37.5218 93.1479 37.6112 92.8787 37.6918 92.61L39.0781 93.2184C39.0153 93.4255 38.9447 93.6508 38.8663 93.8944C38.7847 94.1454 38.6965 94.402 38.6014 94.6644L38.7747 94.7405C38.9906 94.4964 39.246 94.3 39.541 94.1515C39.8288 93.9997 40.1396 93.9146 40.4734 93.896C40.8072 93.8774 41.1474 93.9442 41.494 94.0963ZM40.3516 94.9634C40.2144 94.9032 40.0642 94.8633 39.901 94.8438C39.7347 94.8317 39.5663 94.8446 39.3957 94.8827C39.2178 94.9176 39.0435 94.9844 38.8726 95.0832C38.7018 95.182 38.5432 95.3122 38.3969 95.4739L38.0418 96.3347L37.8115 96.1815C37.9749 96.1402 38.1557 96.1284 38.354 96.1459C38.542 96.1676 38.7361 96.205 38.9363 96.2581C39.1293 96.3081 39.3239 96.3544 39.5201 96.397C39.7162 96.4397 39.899 96.4634 40.0684 96.4682C40.2379 96.4731 40.3878 96.4433 40.5182 96.3789C40.6455 96.3218 40.7483 96.2018 40.8264 96.0189C40.9203 95.7995 40.9231 95.5922 40.835 95.3971C40.7366 95.2062 40.5754 95.0616 40.3516 94.9634Z" fill="black"/>
<path d="M33.8175 90.0415C34.3982 90.4237 34.7285 90.8598 34.8084 91.3498C34.8774 91.8422 34.6955 92.426 34.2625 93.1012L32.7835 95.4078L33.5258 95.8965L32.7923 96.9967L32.3073 96.6774C32.0853 96.5407 31.9012 96.4766 31.7551 96.485C31.6023 96.489 31.4549 96.5726 31.3128 96.7358L30.7503 97.3496L29.9387 96.8153L30.6911 95.6419L29.3846 94.7819L30.137 93.6085L31.4434 94.4686L32.8517 92.2723C33.006 92.0316 33.0635 91.8175 33.0242 91.63C32.9806 91.4492 32.8467 91.2849 32.6223 91.1372C32.497 91.0547 32.3696 90.9899 32.2403 90.9428C32.1044 90.8913 31.9742 90.8675 31.8499 90.8712L32.7051 89.5373C32.9459 89.6008 33.1585 89.679 33.343 89.7718C33.5274 89.8647 33.6856 89.9546 33.8175 90.0415Z" fill="black"/>
<path d="M29.0179 86.2066C29.4126 86.5726 29.7049 86.9517 29.8946 87.3439C30.0844 87.736 30.1824 88.1295 30.1885 88.5242C30.1887 88.9136 30.1081 89.2982 29.9464 89.6779C29.7795 90.0634 29.5393 90.4297 29.2259 90.7768C28.8965 91.1414 28.547 91.428 28.1774 91.6364C27.8025 91.8507 27.4154 91.9781 27.0162 92.0186C26.6169 92.0591 26.2193 92.0092 25.8233 91.8689C25.4216 91.7233 25.032 91.4755 24.6547 91.1256C24.2716 90.7703 24.0021 90.4015 23.8462 90.0191C23.6845 89.6313 23.623 89.2447 23.6619 88.8592C23.6954 88.4796 23.8216 88.1156 24.0403 87.7672L25.525 88.4794C25.3612 88.6843 25.2616 88.8891 25.226 89.0938C25.1792 89.2991 25.1905 89.4933 25.2598 89.6764C25.329 89.8595 25.4478 90.0291 25.6162 90.1852C25.7787 90.3359 25.9501 90.4355 26.1304 90.4838C26.3108 90.5322 26.5029 90.532 26.7068 90.4834C26.8997 90.4352 27.099 90.3445 27.3048 90.2111C27.5048 90.0723 27.7084 89.8883 27.9156 89.6589C28.2025 89.3413 28.4062 89.033 28.5268 88.7342C28.6421 88.4412 28.6716 88.1605 28.6154 87.8922C28.548 87.6243 28.3924 87.3774 28.1486 87.1513C27.9164 86.936 27.6911 86.8134 27.4726 86.7837C27.2483 86.7487 27.0404 86.7721 26.8491 86.854C26.6524 86.9418 26.4737 87.0571 26.3128 87.1997L25.423 85.953C25.6476 85.7397 25.8993 85.5733 26.1781 85.4535C26.4569 85.3338 26.7524 85.2782 27.0647 85.2868C27.3769 85.2954 27.6977 85.3713 28.027 85.5145C28.351 85.6637 28.6813 85.8943 29.0179 86.2066Z" fill="black"/>
<path d="M25.349 82.8064L22.2571 85.0866L18.5449 87.8242L17.5448 86.4318L19.0812 85.2987C19.2084 85.2049 19.353 85.1081 19.515 85.0084C19.6659 84.907 19.827 84.8128 19.9982 84.726C20.1648 84.6327 20.3337 84.5427 20.5049 84.4559C20.6715 84.3626 20.8372 84.2749 21.002 84.1928L20.8631 83.9994C20.4548 84.1625 20.0811 84.2655 19.7421 84.3084C19.3921 84.3496 19.0693 84.3066 18.7736 84.1795C18.478 84.0524 18.2097 83.8213 17.969 83.4861C17.5476 82.8994 17.4363 82.3109 17.6351 81.7206C17.8339 81.1302 18.3532 80.5254 19.193 79.9061L21.8555 77.9426L22.8556 79.335L20.3935 81.1507C19.8719 81.5354 19.5425 81.8966 19.4055 82.2343C19.2576 82.5703 19.297 82.8962 19.5239 83.212C19.7045 83.4635 19.9313 83.6167 20.2044 83.6717C20.4775 83.7267 20.78 83.7008 21.112 83.594C21.4331 83.4854 21.77 83.3109 22.1228 83.0704L24.3558 81.4236L25.349 82.8064Z" fill="black"/>
<path d="M17.8474 68.6207C18.0141 69.1693 18.0808 69.6866 18.0473 70.1726C18.0064 70.6609 17.8706 71.1079 17.6398 71.5136C17.4016 71.9216 17.0711 72.2834 16.6482 72.5988C16.2156 72.909 15.691 73.1604 15.0743 73.3528C14.1945 73.6273 13.4225 73.7014 12.7583 73.575C12.0843 73.4432 11.5222 73.1515 11.072 72.6996C10.612 72.2425 10.2778 71.6711 10.0694 70.9853C9.90725 70.4519 9.84782 69.9449 9.89109 69.4642C9.92452 68.9782 10.0604 68.5312 10.2986 68.1232C10.527 67.7098 10.8601 67.3431 11.298 67.0229C11.7283 66.7051 12.2556 66.4488 12.8797 66.254C13.5189 66.0546 14.1046 65.9636 14.6369 65.981C15.1691 65.9985 15.6493 66.1156 16.0774 66.3324C16.4958 66.5439 16.8548 66.8448 17.1546 67.2351C17.452 67.6178 17.6829 68.0797 17.8474 68.6207ZM16.5363 68.9798C16.4135 68.5759 16.2139 68.2711 15.9373 68.0655C15.6584 67.8522 15.3127 67.7306 14.9002 67.7008C14.4878 67.671 14.0145 67.7394 13.4806 67.9061C12.9166 68.0821 12.4623 68.3073 12.1175 68.5817C11.7705 68.8485 11.5383 69.1545 11.421 69.4998C11.3013 69.8375 11.3028 70.2083 11.4256 70.6121C11.5437 71.0007 11.7433 71.3055 12.0246 71.5264C12.3035 71.7397 12.6567 71.8589 13.0842 71.884C13.5042 71.9115 13.9887 71.8395 14.5376 71.6682C14.9512 71.5392 15.307 71.3823 15.6049 71.1975C15.8952 71.0152 16.1263 70.8137 16.298 70.5933C16.4675 70.3652 16.5727 70.1155 16.6137 69.8441C16.6524 69.565 16.6266 69.2769 16.5363 68.9798Z" fill="black"/>
<path d="M16.1252 60.2759C16.1776 61.0074 15.9737 61.574 15.5133 61.9756C15.0451 62.3778 14.3127 62.6156 13.316 62.6889L9.9375 62.9375L9.81355 61.2079L12.9919 60.9741C13.5884 60.9302 14.0255 60.8101 14.3033 60.6138C14.5728 60.4101 14.6944 60.1253 14.6681 59.7595C14.6522 59.5369 14.5875 59.3498 14.4741 59.1982C14.3522 59.0393 14.1889 58.9075 13.9842 58.8026C13.7716 58.6984 13.5296 58.6242 13.2582 58.5802C12.979 58.5368 12.6782 58.523 12.3559 58.5387L9.63659 58.7388L9.51435 57.0331L13.1401 56.7663L15.6946 56.5783L15.7946 57.9739L13.8169 58.1195L13.8314 58.3222C14.3417 58.3966 14.7603 58.5137 15.0873 58.6735C15.4138 58.8253 15.6615 59.0349 15.8306 59.3023C15.9991 59.5617 16.0973 59.8862 16.1252 60.2759Z" fill="black"/>
<path d="M15.7803 53.9844L12.7752 53.666L9.61743 53.3313L9.76352 51.9159L11.9117 52.1435L11.935 51.9175C11.4008 51.8048 10.9732 51.6553 10.6522 51.4689C10.3321 51.2747 10.1077 51.0345 9.97896 50.7483C9.85027 50.4621 9.8068 50.1168 9.84854 49.7123C9.85672 49.633 9.86923 49.5502 9.88605 49.4638C9.90288 49.3774 9.93309 49.2764 9.97667 49.1608L11.7653 49.4224C11.6896 49.5427 11.6366 49.6733 11.6062 49.8144C11.568 49.9547 11.5432 50.0803 11.5317 50.1913C11.4998 50.5006 11.5428 50.7737 11.6608 51.0106C11.7709 51.2468 11.9559 51.4468 12.2159 51.6106C12.4689 51.7657 12.7847 51.8873 13.1632 51.9755L15.9571 52.2716L15.7803 53.9844Z" fill="black"/>
<path d="M18.257 41.9855L10.0762 41.3633L10.792 39.6184L17.3577 40.3763L17.412 40.2438L12.2552 36.0514L12.9574 34.3397L19.163 39.7768L18.257 41.9855Z" fill="black"/>
<path d="M21.2297 35.6507L15.973 32.3264L16.8667 30.8756L22.1233 34.1999L21.2297 35.6507ZM15.672 31.121C15.497 31.4051 15.3016 31.5869 15.0856 31.6665C14.8738 31.7393 14.6544 31.704 14.4275 31.5604C14.2005 31.4169 14.0728 31.2327 14.0443 31.008C14.0199 30.7764 14.0953 30.5186 14.2702 30.2345C14.4494 29.9437 14.6449 29.7618 14.8567 29.689C15.0726 29.6094 15.2941 29.6414 15.5211 29.7849C15.748 29.9285 15.8736 30.116 15.898 30.3476C15.9265 30.5724 15.8512 30.8302 15.672 31.121Z" fill="black"/>
<path d="M25.0453 30.4037C24.7103 30.7952 24.3183 31.0523 23.8696 31.1751C23.4148 31.2927 22.9336 31.2708 22.4258 31.1096C21.9121 30.9431 21.3997 30.6353 20.8884 30.1861C20.4069 29.763 20.0467 29.3198 19.8078 28.8566C19.563 28.3882 19.4577 27.921 19.4919 27.4551C19.5262 26.9891 19.7185 26.5514 20.0691 26.1418C20.332 25.8346 20.6131 25.6278 20.9125 25.5214C21.2058 25.4099 21.5192 25.3845 21.8526 25.4452C22.1911 25.4999 22.5514 25.6266 22.9335 25.8251L23.0959 25.6354C22.8688 25.4992 22.6476 25.3681 22.4324 25.2423C22.2223 25.1105 22.0263 24.9805 21.8444 24.8523C21.6625 24.7241 21.5091 24.6052 21.3843 24.4955L19.8773 23.1713L20.9909 21.8702L25.1015 25.4824L27.3486 27.4569L26.4207 28.5411L25.0564 27.3423L24.9095 27.514C25.1805 27.8788 25.3667 28.2271 25.4681 28.5589C25.5695 28.8907 25.5864 29.2117 25.5189 29.5217C25.4455 29.8266 25.2876 30.1206 25.0453 30.4037ZM24.3643 29.0454C24.5293 28.8526 24.6294 28.6504 24.6648 28.4388C24.7001 28.2271 24.6885 28.0216 24.6299 27.8224C24.5764 27.6171 24.4905 27.4255 24.372 27.2475C24.2527 27.0583 24.1188 26.8984 23.9702 26.7678L23.8186 26.6346C23.6997 26.5301 23.5624 26.4411 23.4066 26.3675C23.256 26.288 23.0984 26.2287 22.9339 26.1896C22.7635 26.1454 22.595 26.1293 22.4285 26.1413C22.2561 26.1481 22.0916 26.1882 21.935 26.2616C21.7835 26.3291 21.6459 26.4351 21.5222 26.5796C21.3366 26.7965 21.2388 27.0324 21.2289 27.2875C21.2189 27.5426 21.2874 27.8033 21.4344 28.0696C21.5813 28.336 21.7945 28.5919 22.0739 28.8374C22.3533 29.0829 22.6335 29.2606 22.9146 29.3703C23.2007 29.474 23.4703 29.4998 23.7232 29.4477C23.9702 29.3903 24.1839 29.2562 24.3643 29.0454Z" fill="black"/>
<path d="M31.6006 24.0047C31.1877 24.3238 30.7788 24.5497 30.3738 24.6822C29.9703 24.8035 29.578 24.8411 29.1967 24.7948C28.817 24.7373 28.4508 24.5992 28.0981 24.3805C27.7516 24.1569 27.4281 23.8454 27.1274 23.4461C26.8315 23.053 26.6127 22.6506 26.4709 22.2388C26.3305 21.8157 26.2761 21.4016 26.3074 20.9963C26.334 20.5846 26.4473 20.1962 26.6474 19.831C26.8537 19.4609 27.154 19.1235 27.5481 18.8189C27.9235 18.5287 28.3059 18.3334 28.6954 18.2329C29.0849 18.1324 29.4696 18.1309 29.8497 18.2282C30.2298 18.3255 30.5972 18.5178 30.952 18.8051C31.3131 19.0876 31.6522 19.4723 31.9693 19.9592L28.1527 22.9544L27.5872 22.2032L30.5968 19.8318L30.4492 20.5626C30.2338 20.1976 30.0012 19.9412 29.7514 19.7933C29.5078 19.6407 29.2665 19.5765 29.0274 19.6008C28.7884 19.6251 28.5657 19.717 28.3592 19.8766C28.1215 20.0604 27.9597 20.2858 27.8737 20.5528C27.794 20.815 27.7971 21.1083 27.8831 21.4329C27.9706 21.7464 28.1432 22.0742 28.4009 22.4165C28.8018 22.949 29.2103 23.255 29.6264 23.3345C30.0488 23.4092 30.4539 23.2966 30.8418 22.9968C31.017 22.8614 31.1473 22.7255 31.2327 22.5893C31.3134 22.4467 31.3627 22.3083 31.3805 22.1742C31.4045 22.0353 31.4027 21.9014 31.3749 21.7724C31.3486 21.6323 31.3121 21.5051 31.2656 21.3906L32.6269 20.7144C32.7535 20.9876 32.8351 21.2604 32.872 21.5328C32.9088 21.8052 32.8914 22.0844 32.8197 22.3705C32.7433 22.6501 32.6054 22.9272 32.4062 23.2015C32.2132 23.471 31.9447 23.7387 31.6006 24.0047Z" fill="black"/>
<path d="M38.3255 19.7575C37.7649 20.0295 37.219 20.1574 36.6878 20.1411C36.1532 20.1177 35.6617 19.9451 35.213 19.6236C34.761 19.2948 34.3787 18.7997 34.066 18.1381C33.7533 17.4766 33.614 16.8679 33.648 16.3122C33.689 15.753 33.8715 15.2622 34.1953 14.8399C34.5228 14.4069 34.9598 14.0578 35.5063 13.7926C36.0598 13.524 36.6022 13.3979 37.1333 13.4141C37.6716 13.427 38.1667 13.5978 38.6187 13.9265C39.0744 14.2446 39.4586 14.7345 39.7713 15.396C40.0908 16.072 40.2264 16.6913 40.1783 17.2539C40.1372 17.8131 39.9512 18.3056 39.6203 18.7313C39.2964 19.1537 38.8648 19.4957 38.3255 19.7575ZM37.8332 18.5775C38.1029 18.4466 38.2994 18.2717 38.4227 18.0527C38.5532 17.8303 38.6033 17.5673 38.5733 17.2637C38.5469 16.9494 38.4453 16.6053 38.2686 16.2314C38.0816 15.8359 37.8704 15.5273 37.6348 15.3057C37.4029 15.0735 37.1536 14.9337 36.8869 14.8863C36.6168 14.8317 36.3327 14.8767 36.0347 15.0214C35.7721 15.1488 35.5756 15.3237 35.4452 15.5461C35.3147 15.7685 35.261 16.0333 35.284 16.3404C35.3141 16.644 35.4192 16.9864 35.5994 17.3675C35.8882 17.9787 36.2246 18.3857 36.6083 18.5885C36.9991 18.7878 37.4074 18.7841 37.8332 18.5775Z" fill="black"/>
<path d="M47.799 12.4109L46.4162 11.7255L47.4497 10.3845L47.4127 10.3059L45.7383 10.3859L45.9293 8.80084L47.5371 9.39929L47.5874 9.34217L46.9867 7.74686L48.5579 7.47832L48.5069 9.18502L48.5846 9.22026L49.8747 8.12649L50.5915 9.55641L48.9955 10.0354L48.9977 10.1199L50.3965 11.0452L49.312 12.1523L48.3372 10.7543L48.2557 10.7683L47.799 12.4109Z" fill="black"/>
<circle cx="55.998" cy="55.9961" r="31" fill="white"/>
<path d="M50.8457 63.2641C50.8503 63.532 50.9283 63.7934 51.0711 64.0201C51.2139 64.2468 51.4161 64.43 51.6557 64.5498C51.895 64.685 52.1652 64.756 52.44 64.756C52.7148 64.756 52.985 64.685 53.2243 64.5498L64.3457 57.6712C64.5877 57.5546 64.7919 57.3721 64.9347 57.1447C65.0776 56.9173 65.1534 56.6541 65.1534 56.3855C65.1534 56.1169 65.0776 55.8538 64.9347 55.6263C64.7919 55.3989 64.5877 55.2164 64.3457 55.0998L53.2243 48.2727C52.985 48.1375 52.7148 48.0664 52.44 48.0664C52.1652 48.0664 51.895 48.1375 51.6557 48.2727C51.4161 48.3925 51.2139 48.5757 51.0711 48.8023C50.9283 49.029 50.8503 49.2905 50.8457 49.5584V63.2641Z" fill="black"/>
</svg>
